<svg xmlns="http://www.w3.org/2000/svg" width="29.315" height="36" viewBox="0 0 29.315 36"><g transform="translate(-8.315 -4.374)"><path d="M32.8,25.468c-.045-4.029,3.719-5.962,3.887-6.059A8.827,8.827,0,0,0,30.1,16.258c-2.8-.252-5.471,1.459-6.893,1.459s-3.615-1.422-5.939-1.386A9.031,9.031,0,0,0,9.822,20.32C6.647,25.187,9.01,32.4,12.1,36.349c1.512,1.931,3.316,4.1,5.683,4.023,2.281-.08,3.141-1.3,5.9-1.3s3.531,1.3,5.944,1.263c2.453-.039,4.008-1.967,5.508-3.906A16.734,16.734,0,0,0,37.631,31.9C37.577,31.879,32.849,30.279,32.8,25.468Z" transform="translate(0 0)"/><path d="M35.582,12.229a10.852,10.852,0,0,0,2.561-7.855A11.025,11.025,0,0,0,30.9,8.1a10.318,10.318,0,0,0-2.611,7.613A9.134,9.134,0,0,0,35.582,12.229Z" transform="translate(-7.11)"/></g></svg>