<svg xmlns="http://www.w3.org/2000/svg" width="547.608" height="381" viewBox="0 0 547.608 381"><defs><style>.a{opacity:0.9;}.b{fill:#e6e6e6;}.c{fill:#2f2e41;}.d{fill:#3f3d56;}.e{fill:#fff;}.f{fill:#5d99c6;}.g{fill:#ffb8b8;}</style></defs><g class="a"><ellipse class="b" cx="109.107" cy="8.287" rx="109.107" ry="8.287" transform="translate(0 364.427)"/><path class="c" d="M324.272,270.524c18.988-8.076,42.638-2.959,65.734.592.215-4.3,2.82-9.535.091-12.535-3.315-3.645-3.01-7.475-1.015-11.328,5.1-9.851-2.208-20.332-9.588-29.048a16.345,16.345,0,0,0-13.642-5.726l-13.671.977a16.373,16.373,0,0,0-14.538,11.7h0c-3.264,4.44-5.012,8.867-3.912,13.271-4.89,3.341-5.711,7.375-3.514,11.922a6.853,6.853,0,0,1-.085,8.36,38.6,38.6,0,0,0-5.739,11.4Z" transform="translate(-240.873 -185.987)"/><path class="c" d="M798.474,639.8h-387A12.976,12.976,0,0,1,398.5,626.827h0q210.43-24.456,412.95,0h0A12.976,12.976,0,0,1,798.474,639.8Z" transform="translate(-263.842 -310.435)"/><path class="d" d="M811.451,509.931l-412.95-.763,47.859-80.529.229-.382V250.78a16.4,16.4,0,0,1,16.4-16.4H744.669a16.4,16.4,0,0,1,16.4,16.4v178.7Z" transform="translate(-263.842 -192.776)"/><path class="e" d="M488.956,250.957a5.349,5.349,0,0,0-5.343,5.343V418.122a5.349,5.349,0,0,0,5.343,5.343H773.671a5.35,5.35,0,0,0,5.343-5.343V256.3a5.349,5.349,0,0,0-5.343-5.343Z" transform="translate(-290.18 -197.907)"/><path class="c" d="M485.443,531.718a2.3,2.3,0,0,0-2.08,1.333L468.616,565.11a2.29,2.29,0,0,0,2.08,3.247H780.818a2.29,2.29,0,0,0,2.048-3.314l-16.029-32.059a2.278,2.278,0,0,0-2.048-1.266Z" transform="translate(-285.474 -284.788)"/><circle class="e" cx="3.435" cy="3.435" r="3.435" transform="translate(336.553 43.509)"/><path class="c" d="M649.016,593.619a2.293,2.293,0,0,0-2.211,1.694l-3.7,13.74a2.29,2.29,0,0,0,2.211,2.886h70.349a2.289,2.289,0,0,0,2.163-3.039l-4.756-13.74a2.291,2.291,0,0,0-2.164-1.541Z" transform="translate(-339.511 -303.943)"/><path class="c" d="M579.018,337.135v3.053H264.306l.237-.381v-2.672Z" transform="translate(-81.789 -104.326)"/><circle class="f" cx="53.432" cy="53.432" r="53.432" transform="translate(435.02 0)"/><path class="e" d="M921.683,270.515H877.411a3.056,3.056,0,0,1-3.053-3.053V240.746a3.057,3.057,0,0,1,3.053-3.053h44.272a3.056,3.056,0,0,1,3.053,3.053v26.716A3.056,3.056,0,0,1,921.683,270.515Zm-44.272-29.769v26.716h44.274l0-26.716Z" transform="translate(-411.095 -193.802)"/><path class="e" d="M918.417,229.8H890.938V217.587c0-8.846,5.779-15.266,13.74-15.266s13.74,6.42,13.74,15.266Zm-24.426-3.053h21.373v-9.16c0-7.191-4.394-12.213-10.686-12.213s-10.686,5.022-10.686,12.213Z" transform="translate(-416.226 -182.856)"/><circle class="e" cx="3.053" cy="3.053" r="3.053" transform="translate(485.399 56.485)"/><path class="b" d="M756.392,393.173H536.354a4.08,4.08,0,0,1-4.075-4.075V334.516a4.08,4.08,0,0,1,4.075-4.075H756.392a4.08,4.08,0,0,1,4.075,4.075V389.1A4.08,4.08,0,0,1,756.392,393.173Zm-220.038-61.1a2.448,2.448,0,0,0-2.445,2.445V389.1a2.448,2.448,0,0,0,2.445,2.445H756.392a2.448,2.448,0,0,0,2.445-2.445V334.516a2.448,2.448,0,0,0-2.445-2.445Z" transform="translate(-305.24 -222.503)"/><circle class="b" cx="16.598" cy="16.598" r="16.598" transform="translate(248.705 120.611)"/><path class="b" d="M641.963,356.8a2.766,2.766,0,0,0,0,5.533H772.38a2.766,2.766,0,0,0,0-5.533Z" transform="translate(-338.325 -230.661)"/><path class="b" d="M641.963,380.842a2.766,2.766,0,0,0,0,5.533h56.118a2.766,2.766,0,1,0,0-5.533Z" transform="translate(-338.325 -238.099)"/><path class="g" d="M448.564,371.835,407.888,393.46l-.515-18.021a120.461,120.461,0,0,0,37.586-12.357l4.254-10.51a7.125,7.125,0,0,1,12.11-1.849h0a7.125,7.125,0,0,1-.627,9.715Z" transform="translate(-266.588 -227.974)"/><path class="c" d="M322.972,551.047h0a7.992,7.992,0,0,1,1.015-6.466l8.935-13.713a15.615,15.615,0,0,1,20.257-5.344h0c-3.755,6.392-3.232,12,1.3,16.873a81.232,81.232,0,0,0-19.291,13.152,7.992,7.992,0,0,1-12.213-4.5Z" transform="translate(-240.383 -282.33)"/><path class="c" d="M436.112,510.384h0a15.332,15.332,0,0,1-13.031,7.444l-59.36.45-2.574-14.931,26.259-7.723-22.14-16.991,24.2-28.319,43.954,40.967a15.333,15.333,0,0,1,2.694,19.1Z" transform="translate(-252.283 -259.597)"/><path class="c" d="M339.585,594.042h-13.9C313.2,508.484,300.5,422.687,338.04,390.664l44.28,7.208-5.664,37.586-24.714,28.318Z" transform="translate(-237.416 -241.139)"/><path class="c" d="M356.309,702.223h0a7.993,7.993,0,0,1-6.466-1.014l-15.094-2.029a15.615,15.615,0,0,1-5.346-20.257h0c6.392,3.755,12,3.231,16.873-1.3,3.443,6.952,9.116,6.528,14.534,12.385a7.992,7.992,0,0,1-4.5,12.213Z" transform="translate(-241.92 -329.938)"/><path class="g" d="M387.636,291.982,361.892,285.8c4.276-8.752,4.628-18.49,2.574-28.833l17.506-.515C382.52,269.317,384.179,281.333,387.636,291.982Z" transform="translate(-252.514 -199.608)"/><path class="f" d="M387.818,382c-18.741,12.77-31.982.437-42.087-18.592,1.4-11.644-.869-25.578-5.08-40.719a27.717,27.717,0,0,1,16.922-33.424h0l22.14,9.268c18.8,15.324,22.5,31.922,15.446,49.429Z" transform="translate(-245.621 -209.76)"/><path class="g" d="M310.618,317.082l-20.6,10.813L326.58,349.52l5.087,12.547a6.655,6.655,0,0,1-4,8.791h0a6.655,6.655,0,0,1-8.813-5.9l-.514-8.745L271.878,340.88a10.865,10.865,0,0,1-6.818-6.637h0a10.865,10.865,0,0,1,4.076-12.639L306.5,295.972Z" transform="translate(-222.351 -211.837)"/><path class="f" d="M348.687,316.705c-8.59-3.764-16.4.325-26.259,3.6l-1.545-27.289c9.789-5.218,19.123-6.624,27.8-2.574Z" transform="translate(-239.824 -209.401)"/><circle class="g" cx="16.437" cy="16.437" r="16.437" transform="translate(102.701 37.49)"/><path class="c" d="M388.1,242.615c-16.274,1.594-28.674-1.068-36.6-8.646v-6.1h35.218Z" transform="translate(-249.298 -190.761)"/></g></svg>