<svg xmlns="http://www.w3.org/2000/svg" width="341.943" height="384.398" viewBox="0 0 341.943 384.398">
    <g data-name="Grupo 385">
        <circle data-name="Elipse 101" cx="148.093" cy="148.093" r="148.093" transform="translate(45.758)" style="fill:#f2f2f2"/>
        <path data-name="Caminho 735" d="M678.079 220.039H406.794a1.053 1.053 0 1 1 0-2.107h271.285a1.053 1.053 0 1 1 0 2.107z" transform="translate(-387.452 -153.812)" style="fill:#cacaca"/>
        <ellipse data-name="Elipse 102" cx="6.173" cy="6.311" rx="6.173" ry="6.311" transform="translate(31.199 46.121)" style="fill:#3f3d56"/>
        <ellipse data-name="Elipse 103" cx="6.173" cy="6.311" rx="6.173" ry="6.311" transform="translate(52.524 46.121)" style="fill:#3f3d56"/>
        <ellipse data-name="Elipse 104" cx="6.173" cy="6.311" rx="6.173" ry="6.311" transform="translate(73.849 46.121)" style="fill:#3f3d56"/>
        <path data-name="Caminho 736" d="M839.166 189.744h-15.148a1.147 1.147 0 1 0 0 2.294h15.148a1.147 1.147 0 1 0 0-2.294z" transform="translate(-561.378 -142.059)" style="fill:#3f3d56"/>
        <path data-name="Caminho 737" d="M839.166 197.129h-15.148a1.147 1.147 0 1 0 0 2.294h15.148a1.147 1.147 0 1 0 0-2.294z" transform="translate(-561.378 -145.138)" style="fill:#3f3d56"/>
        <path data-name="Caminho 738" d="M839.166 204.5h-15.148a1.147 1.147 0 1 0 0 2.294h15.148a1.147 1.147 0 1 0 0-2.294z" transform="translate(-561.378 -148.213)" style="fill:#3f3d56"/>
        <rect data-name="Retângulo 252" width="95.392" height="20.399" rx="10.199" transform="translate(112.981 101.725)" style="fill:#fff"/>
        <rect data-name="Retângulo 253" width="192.285" height="20.399" rx="10.199" transform="translate(64.535 142.522)" style="fill:#fff"/>
        <rect data-name="Retângulo 254" width="192.285" height="20.399" rx="10.199" transform="translate(64.535 183.319)" style="fill:#fff"/>
        <path data-name="Caminho 739" d="m436.341 731.506-.4-.04a46.951 46.951 0 0 1-33.926-20.184 45.551 45.551 0 0 1-5.139-10.206l-.123-.344.364-.029c4.342-.349 8.8-1.086 10.784-1.437l-12.777-4.329-.079-.379a8.9 8.9 0 0 1 3.748-9.248 9.057 9.057 0 0 1 10.147-.172c1.391.889 2.846 1.769 4.253 2.62 4.835 2.925 9.835 5.949 13.584 10.087a28.379 28.379 0 0 1 6.781 23.471z" transform="translate(-382.908 -348.005)" style="fill:#f2f2f2"/>
        <path data-name="Caminho 740" d="M171.3 629.489h6.3l3-24.291h-9.3z" transform="translate(-71.425 -252.342)" style="fill:#a0616a"/>
        <path data-name="Caminho 741" d="M545.3 758.6h19.365v-.245a7.538 7.538 0 0 0-7.537-7.537l-3.537-2.684-6.6 2.684H545.3z" transform="translate(-445.64 -374.885)" style="fill:#2f2e41"/>
        <path data-name="Caminho 742" d="m84.745 603.049 5.037 3.779 16.974-17.628-7.435-5.577z" transform="translate(-35.335 -243.345)" style="fill:#a0616a"/>
        <path data-name="Caminho 743" d="m452.051 729.235 15.491 11.621.147-.2a7.538 7.538 0 0 0-1.506-10.553l-1.219-4.269-6.89-1.814-1.352-1.014z" transform="translate(-406.761 -364.409)" style="fill:#2f2e41"/>
        <path data-name="Caminho 744" d="M484.817 545.355s.348 9.483.786 17.087c.072 1.247-2.85 2.6-2.774 3.959.05.9.6 1.775.65 2.714.054.991-.7 1.867-.65 2.892.053 1 .918 2.149.97 3.173.562 11.025 2.6 24.223.559 27.913-1 1.818-13.81 27.009-13.81 27.009s7.135 10.7 9.173 7.135c2.692-4.712 23.442-26.754 23.442-30.964s4.8-35.713 4.8-35.713l3.347 18.647 1.535 3.694-.482 2.169.992 2.927.054 2.9.966 5.379s-2.9 41.91-1.269 43.077 9.586 3.277 10.523 1.172 7-43.739 7-43.739.978-19.08 2.039-36.814c.061-1.029.785-2.273.841-3.287.066-1.177-.392-2.706-.331-3.847.066-1.31.647-2.232.7-3.486.433-9.688-2-21.485-2.773-22.646-2.339-3.506-4.444-6.309-4.444-6.309s-31.505-10.351-39.924.167z" transform="translate(-414.474 -282.198)" style="fill:#2f2e41"/>
        <path data-name="Caminho 745" d="m526.756 390.275-12.489-2.5-5.828 7.91c-10.875 10.693-11.039 20.131-9.1 35.259v21.232l-1.405 14.233s-4.974 10.4.156 12.827 38.83 2.216 42.047 1.249.429-2.154-.416-6.661c-1.587-8.465-.526-4.382-.416-7.077 1.566-38.664-2.082-54.536-2.452-58.709l-6.352-11.52z" transform="translate(-424.99 -224.631)" style="fill:#3f3d56"/>
        <path data-name="Caminho 746" d="M637.114 440.182a5.049 5.049 0 0 1-7.57 1.626l-26.972 17.126.078-9.324 26.2-15.2a5.077 5.077 0 0 1 8.263 5.778z" transform="translate(-469.522 -243.364)" style="fill:#a0616a"/>
        <path data-name="Caminho 747" d="m523.405 410.318-3.071-.325a8.125 8.125 0 0 0-7.334 3.2 7.918 7.918 0 0 0-1.385 2.91v.008a8.117 8.117 0 0 0 3.066 8.443l10.606 7.819c7.443 10.057 21.431 16.729 37.838 22.15l25.5-15.839-9.021-10.925-17.493 9.375-26-20.129-.015-.012-9.9-6.376z" transform="translate(-431.501 -233.876)" style="fill:#3f3d56"/>
        <circle data-name="Elipse 105" cx="14.564" cy="14.564" r="14.564" transform="translate(82.981 130.383)" style="fill:#a0616a"/>
        <path data-name="Caminho 748" d="m541.882 381.548-.353.01c-.05.131-.1.26-.167.387z" transform="translate(-444.001 -222.033)" style="fill:#2f2e41"/>
        <path data-name="Caminho 749" d="M549.109 357.256a2.576 2.576 0 0 0 .1.422 1.99 1.99 0 0 0-.1-.422z" transform="translate(-447.23 -211.905)" style="fill:#2f2e41"/>
        <path data-name="Caminho 750" d="M541.934 330.279c-.6 1.861-1.135-.5-3.107-.075a8.894 8.894 0 0 1-7.076-1.119 10.962 10.962 0 0 0-10.042-1.531c-3.324 1.176-8.893 2.005-9.76 5.423a9.509 9.509 0 0 1-1.15 3.462 12.137 12.137 0 0 1-2.487 2.014c-2.844 2.237-.67 8.594.676 11.953a13.166 13.166 0 0 0 7.828 7.059 27.651 27.651 0 0 0 10.352 1.331 7.855 7.855 0 0 0-.157-5.044 31.921 31.921 0 0 1-1.578-5.327c-.227-1.841.272-3.933 1.816-4.962 1.419-.946 3.728-.37 4.268 1.159-.315-1.911 1.621-3.761 3.618-4.086 2.143-.349 4.287.425 6.424.81s1.38-8.611.375-11.067z" transform="translate(-429.639 -199.273)" style="fill:#2f2e41"/>
        <circle data-name="Elipse 106" cx="29.805" cy="29.805" r="29.805" transform="translate(134.241 136.776)" style="fill:#6c63ff"/>
        <path data-name="Caminho 751" d="m654 371.688-7.829 7.829-7.83-7.829a3.245 3.245 0 1 0-4.589 4.59l7.829 7.829-7.829 7.829a3.245 3.245 0 1 0 4.589 4.589l7.829-7.829 7.83 7.83a3.245 3.245 0 1 0 4.589-4.59l-7.829-7.829 7.829-7.829a3.245 3.245 0 0 0-4.589-4.59z" transform="translate(-482.128 -217.526)" style="fill:#fff"/>
        <path data-name="Caminho 752" d="M623.392 348.191a5.049 5.049 0 0 1-4.068 6.588L613.01 386.1l-6.675-6.511 7.167-29.433a5.077 5.077 0 0 1 9.89-1.963z" transform="translate(-471.091 -206.662)" style="fill:#a0616a"/>
        <path data-name="Caminho 753" d="m516.759 399.815-2.361 1.991a8.125 8.125 0 0 0-2.767 7.509 7.918 7.918 0 0 0 1.141 3.014v.007a8.118 8.118 0 0 0 8.215 3.633l12.985-2.24c12.41 1.592 26.908-3.883 42.179-11.97l6.227-29.369-14.129-1.054-5.346 19.114-32.527 4.828h-.019l-11.453 2.727z" transform="translate(-431.559 -217.775)" style="fill:#3f3d56"/>
        <path data-name="Caminho 754" d="m533.509 765.955-158.441.179a.694.694 0 1 1 0-1.388l158.441-.179a.694.694 0 1 1 0 1.388z" transform="translate(-374.373 -381.736)" style="fill:#cacaca"/>
    </g>
</svg>
