<svg data-name="Grupo 23" xmlns="http://www.w3.org/2000/svg" width="421.571" height="292.654" viewBox="0 0 421.571 292.654">
    <circle data-name="Elipse 3" cx="24.077" cy="24.077" r="24.077" transform="translate(55.901 14.672)" style="fill:#ff6584"/>
    <path data-name="Caminho 9" d="M313.518 190.126c0 56.811-33.773 76.647-75.435 76.647s-75.434-19.836-75.434-76.647 75.435-129.084 75.435-129.084 75.434 72.272 75.434 129.084z" transform="translate(-116.397 -61.042)" style="fill:#f2f2f2"/>
    <path data-name="Caminho 10" d="m265.884 197.04.773-47.546 32.152-58.821-32.031 51.362.347-21.378L289.284 78.1 267.216 115l.624-38.45 23.73-33.88-23.631 27.83.391-70.5-2.453 93.334.2-3.85-24.123-36.927 23.738 44.318-2.248 42.942-.067-1.14-27.812-38.86 27.728 42.883-.281 5.37-.05.081.023.441-5.7 108.948h7.62l.914-56.274 27.659-42.782z" transform="translate(-146.945)" style="fill:#3f3d56"/>
    <path data-name="Caminho 11" d="M955.53 290.813c0 46.5-27.645 62.739-61.747 62.739s-61.747-16.237-61.747-62.739 61.746-105.661 61.746-105.661 61.748 59.159 61.748 105.661z" transform="translate(-533.958 -138.462)" style="fill:#f2f2f2"/>
    <path data-name="Caminho 12" d="m909.331 285.4.632-38.918 26.318-48.148-26.219 42.042.284-17.5 18.14-34.834-18.065 30.2.511-31.473 19.423-27.732-19.343 22.784.32-57.711-2.008 76.4.165-3.151-19.746-30.229 19.431 36.277-1.84 35.15-.055-.933-22.765-31.809 22.7 35.1-.23 4.4-.041.066.019.361-4.668 89.179h6.237l.748-46.063 22.639-35.019z" transform="translate(-551.757 -77.419)" style="fill:#3f3d56"/>
    <ellipse data-name="Elipse 4" cx="208.639" cy="10.547" rx="208.639" ry="10.547" transform="translate(0 245.452)" style="fill:#3f3d56"/>
    <ellipse data-name="Elipse 5" cx="35.735" cy="1.806" rx="35.735" ry="1.806" transform="translate(300.005 271.617)" style="fill:#3f3d56"/>
    <ellipse data-name="Elipse 6" cx="35.735" cy="1.806" rx="35.735" ry="1.806" transform="translate(170.695 289.041)" style="fill:#3f3d56"/>
    <ellipse data-name="Elipse 7" cx="81.641" cy="4.127" rx="81.641" ry="4.127" transform="translate(26.684 272.111)" style="fill:#3f3d56"/>
    <circle data-name="Elipse 8" cx="29.72" cy="29.72" r="29.72" transform="translate(6.803 183.312)" style="fill:#2f2e41"/>
    <path data-name="Ret창ngulo 30" transform="rotate(.675 -20037.269 2045.505)" style="fill:#2f2e41" d="M0 0h9.029v16.177H0z"/>
    <path data-name="Ret창ngulo 31" transform="rotate(.675 -20046.32 3578.235)" style="fill:#2f2e41" d="M0 0h9.029v16.177H0z"/>
    <ellipse data-name="Elipse 9" cx="2.822" cy="7.524" rx="2.822" ry="7.524" transform="rotate(-89.325 140.443 116.317)" style="fill:#2f2e41"/>
    <ellipse data-name="Elipse 10" cx="2.822" cy="7.524" rx="2.822" ry="7.524" transform="rotate(-89.325 149.391 107.098)" style="fill:#2f2e41"/>
    <circle data-name="Elipse 11" cx="10.157" cy="10.157" r="10.157" transform="translate(27.207 195.36)" style="fill:#fff"/>
    <circle data-name="Elipse 12" cx="3.386" cy="3.386" r="3.386" transform="translate(33.978 202.132)" style="fill:#3f3d56"/>
    <path data-name="Caminho 13" d="M60.373 512.192c-2.273-10.775 5.527-21.544 17.418-24.053s23.377 4.192 25.65 14.967-5.635 14.646-17.528 17.155-23.267 2.705-25.54-8.069z" transform="translate(-52.352 -327.136)" style="fill:#5d99c6"/>
    <path data-name="Caminho 14" d="M166.059 593.322c0 20.72-12.317 27.954-27.512 27.954q-.528 0-1.054-.012c-.7-.015-1.4-.049-2.09-.1-13.713-.97-24.367-8.577-24.367-27.847 0-19.942 25.484-45.105 27.4-46.967l.111-.107s27.512 26.357 27.512 47.079z" transform="translate(-84.201 -363.71)" style="fill:#5d99c6"/>
    <path data-name="Caminho 15" d="m163.166 618.107 10.062-14.06-10.087 15.6-.027 1.614c-.7-.015-1.4-.049-2.09-.1l1.085-20.73-.008-.161.018-.03.1-1.958-10.113-15.642 10.144 14.174.024.416.82-15.663-8.658-16.164 8.763 13.415.853-32.472v-.111.107l-.143 25.606 8.619-10.151-8.654 12.357-.228 14.023 8.047-13.458-8.081 15.522-.127 7.8 11.683-18.732-11.727 21.452z" transform="translate(-109.821 -363.71)" style="fill:#3f3d56"/>
    <circle data-name="Elipse 13" cx="29.72" cy="29.72" r="29.72" transform="translate(238.319 182.991)" style="fill:#2f2e41"/>
    <path data-name="Ret창ngulo 32" transform="rotate(-17.06 925.494 -752.46)" style="fill:#2f2e41" d="M0 0h9.029v16.177H0z"/>
    <path data-name="Ret창ngulo 33" transform="rotate(-17.06 916.44 -812.526)" style="fill:#2f2e41" d="M0 0h9.029v16.177H0z"/>
    <ellipse data-name="Elipse 14" cx="7.524" cy="2.822" rx="7.524" ry="2.822" transform="rotate(-17.06 970.54 -759.249)" style="fill:#2f2e41"/>
    <ellipse data-name="Elipse 15" cx="7.524" cy="2.822" rx="7.524" ry="2.822" transform="rotate(-17.06 960.236 -819.124)" style="fill:#2f2e41"/>
    <circle data-name="Elipse 16" cx="10.157" cy="10.157" r="10.157" transform="translate(256.39 195.14)" style="fill:#fff"/>
    <circle data-name="Elipse 17" cx="3.386" cy="3.386" r="3.386" transform="translate(263.162 201.912)" style="fill:#3f3d56"/>
    <path data-name="Caminho 16" d="M653.373 526.741c-5.451-9.568-1.309-22.2 9.252-28.219s23.541-3.138 28.992 6.43-.9 15.666-11.46 21.683-21.333 9.673-26.784.106z" transform="translate(-421.011 -331.98)" style="fill:#5d99c6"/>
    <path data-name="Caminho 17" d="M527.545 589.642c0 19.02-11.306 25.661-25.254 25.661q-.485 0-.968-.011a41.611 41.611 0 0 1-1.919-.088c-12.588-.891-22.368-7.873-22.368-25.562 0-18.306 23.393-41.4 25.15-43.114l.1-.1s25.259 24.194 25.259 43.214z" transform="translate(-312.51 -363.823)" style="fill:#5d99c6"/>
    <path data-name="Caminho 18" d="m524.889 612.392 9.237-12.906-9.26 14.323-.024 1.482a41.611 41.611 0 0 1-1.919-.088l1-19.029-.008-.148.017-.028.094-1.8-9.283-14.359 9.312 13.011.022.381.752-14.377-7.947-14.838 8.044 12.314.783-29.807v-.1.1l-.131 23.505 7.912-9.318-7.944 11.343-.209 12.873 7.387-12.354-7.424 14.249-.117 7.156 10.725-17.195-10.765 19.692z" transform="translate(-336.029 -363.823)" style="fill:#3f3d56"/>
    <path data-name="Caminho 19" d="M784.06 604.322c0 20.72-12.317 27.954-27.512 27.954q-.528 0-1.054-.012c-.7-.015-1.4-.049-2.09-.1-13.713-.971-24.367-8.577-24.367-27.847 0-19.942 25.484-45.105 27.4-46.967l.111-.107s27.512 26.357 27.512 47.079z" transform="translate(-469.707 -370.572)" style="fill:#5d99c6"/>
    <path data-name="Caminho 20" d="m781.166 629.107 10.062-14.06-10.088 15.6-.027 1.614c-.7-.015-1.4-.049-2.09-.1l1.085-20.73-.008-.161.018-.03.1-1.958-10.113-15.642 10.145 14.174.024.416.82-15.662-8.658-16.164 8.763 13.415.853-32.472v-.111.107l-.143 25.606 8.619-10.151-8.654 12.357-.228 14.023 8.047-13.459-8.081 15.522-.127 7.8 11.683-18.732-11.727 21.452z" transform="translate(-495.328 -370.572)" style="fill:#3f3d56"/>
    <ellipse data-name="Elipse 18" cx="4.665" cy="14.86" rx="4.665" ry="14.86" transform="rotate(-64.626 296.019 -79.585)" style="fill:#2f2e41"/>
    <ellipse data-name="Elipse 19" cx="4.665" cy="14.86" rx="4.665" ry="14.86" transform="rotate(-68.159 169.306 101.758)" style="fill:#2f2e41"/>
</svg>
