<svg xmlns="http://www.w3.org/2000/svg" width="36" height="36" viewBox="0 0 36 36"><defs><style>.a{fill:none;}.b{fill:#fbbc05;}.b,.c,.d,.e{fill-rule:evenodd;}.c{fill:#ea4335;}.d{fill:#34a853;}.e{fill:#4285f4;}</style></defs><rect class="a" width="36" height="36"/><path class="b" d="M8.74,43.622a10.641,10.641,0,0,1,.541-3.342L3.214,35.648a18.123,18.123,0,0,0,0,15.942l6.063-4.641a10.648,10.648,0,0,1-.535-3.327" transform="translate(-0.982 -25.622)"/><path class="c" d="M24.115,7.364a10.43,10.43,0,0,1,6.637,2.373L36,4.5A18.014,18.014,0,0,0,7.938,10.026L14,14.658A10.623,10.623,0,0,1,24.115,7.364" transform="translate(-5.705)"/><path class="d" d="M24.115,83.176A10.623,10.623,0,0,1,14,75.881L7.938,80.513A17.971,17.971,0,0,0,24.115,90.539,17.178,17.178,0,0,0,35.86,86.053L30.1,81.6a11.151,11.151,0,0,1-5.986,1.574" transform="translate(-5.705 -54.539)"/><path class="e" d="M82.663,55.637a14.909,14.909,0,0,0-.41-3.273h-16.8v6.954h9.668a8.106,8.106,0,0,1-3.682,5.38L77.2,69.15c3.309-3.071,5.462-7.647,5.462-13.514" transform="translate(-47.047 -37.637)"/></svg>