<svg data-name="Grupo 383" xmlns="http://www.w3.org/2000/svg" width="37" height="42" viewBox="0 0 37 42">
    <g data-name="Grupo 360">
        <path data-name="Caminho 642" d="M1628.01 401.429a.581.581 0 0 1-.581.581h-4.848a.581.581 0 0 1-.581-.581v-4.848a.581.581 0 0 1 .581-.581h4.848a.581.581 0 0 1 .581.581z" transform="translate(-1606.357 -388.694)" style="stroke:#90caf9;fill:none"/>
        <path data-name="Caminho 643" d="M2101.009 401.429a.58.58 0 0 1-.581.581h-4.847a.581.581 0 0 1-.582-.581v-4.848a.581.581 0 0 1 .582-.581h4.847a.58.58 0 0 1 .581.581z" transform="translate(-2072.009 -388.694)" style="stroke:#90caf9;fill:none"/>
        <path data-name="Caminho 644" d="M2101.009 1346.429a.58.58 0 0 1-.581.581h-4.847a.581.581 0 0 1-.582-.581v-4.847a.581.581 0 0 1 .582-.581h4.847a.58.58 0 0 1 .581.581z" transform="translate(-2072.009 -1319.244)" style="stroke:#90caf9;fill:none"/>
        <path data-name="Caminho 645" d="M1156.01 873.429a.581.581 0 0 1-.582.581h-4.847a.581.581 0 0 1-.581-.581v-4.848a.581.581 0 0 1 .581-.581h4.847a.581.581 0 0 1 .582.581z" transform="translate(-1141.694 -853.477)" style="stroke:#90caf9;fill:none"/>
        <path data-name="Caminho 646" d="M1628.01 873.429a.581.581 0 0 1-.581.581h-4.848a.581.581 0 0 1-.581-.581v-4.848a.581.581 0 0 1 .581-.581h4.848a.581.581 0 0 1 .581.581z" transform="translate(-1606.357 -853.477)" style="stroke:#90caf9;fill:none"/>
        <path data-name="Caminho 647" d="M1156.01 1346.429a.581.581 0 0 1-.582.581h-4.847a.581.581 0 0 1-.581-.581v-4.847a.581.581 0 0 1 .581-.581h4.847a.581.581 0 0 1 .582.581z" transform="translate(-1141.694 -1319.244)" style="stroke:#90caf9;fill:none"/>
        <path data-name="Caminho 648" d="M1628.01 1346.429a.581.581 0 0 1-.581.581h-4.848a.581.581 0 0 1-.581-.581v-4.847a.581.581 0 0 1 .581-.581h4.848a.581.581 0 0 1 .581.581z" transform="translate(-1606.357 -1319.244)" style="stroke:#90caf9;fill:none"/>
        <path data-name="Caminho 649" d="M1156.01 1819.429a.581.581 0 0 1-.582.581h-4.847a.581.581 0 0 1-.581-.581v-4.848a.581.581 0 0 1 .581-.581h4.847a.581.581 0 0 1 .582.581z" transform="translate(-1141.694 -1785.01)" style="stroke:#90caf9;fill:none"/>
        <path data-name="Caminho 650" d="M1628.01 1819.429a.581.581 0 0 1-.581.581h-4.848a.581.581 0 0 1-.581-.581v-4.848a.581.581 0 0 1 .581-.581h4.848a.581.581 0 0 1 .581.581z" transform="translate(-1606.357 -1785.01)" style="stroke:#90caf9;fill:none"/>
        <path data-name="Caminho 651" d="M1136.621 379.318A3.311 3.311 0 1 1 1133.3 376a3.316 3.316 0 0 1 3.321 3.318z" transform="translate(-1122 -369)" style="fill:#757de8;stroke:#90caf9"/>
    </g>
    <path data-name="Retângulo 250" style="fill:none" d="M0 0h37v42H0z"/>
</svg>
