<svg xmlns="http://www.w3.org/2000/svg" width="289.823" height="200.058" viewBox="0 0 289.823 200.058">
    <defs>
        <linearGradient id="h74or6jrga" y1=".5" x2="1" y2=".5" gradientUnits="objectBoundingBox">
            <stop offset="0" stop-color="gray" stop-opacity=".251"/>
            <stop offset=".54" stop-color="gray" stop-opacity=".122"/>
            <stop offset="1" stop-color="gray" stop-opacity=".102"/>
        </linearGradient>
    </defs>
    <g data-name="Grupo 359" transform="translate(-14174 1810)">
        <path data-name="Caminho 283" d="M180.841 74.7c-18.577.025-36.458-5.241-53.562-11.092S93.2 51.2 74.973 48.427c-11.725-1.784-25.059-1.62-34.224 4.859-8.823 6.233-11.377 16.549-12.61 26.08-.927 7.17-1.354 14.7 2.117 21.254 2.411 4.553 6.536 8.306 9.444 12.645 10.15 15.1 4.046 34.378-5.818 49.824-4.625 7.247-10.043 14.193-13.54 21.855s-4.931 16.35-1.364 23.913c3.534 7.5 11.517 12.936 20.083 16.651 17.4 7.56 37.651 9.18 57.362 9.8 43.631 1.384 87.346-1.439 130.945-4.262 16.134-1.044 32.34-2.1 48.142-5.12 8.773-1.678 17.807-4.168 24.027-9.625 7.9-6.929 9.511-18.242 3.765-26.373-9.635-13.639-35.042-16.211-41.951-30.969-3.81-8.124-.524-17.441 4.314-25.272 10.378-16.8 28.242-31.853 28.543-50.647.206-12.906-9.084-25.5-22.959-31.105-14.544-5.875-34.373-4.364-44.563 6.586-10.477 11.284-29.442 16.158-45.845 16.179z" transform="translate(14157.09 -1857.454)" style="opacity:.1;fill:#90caf9"/>
        <path data-name="Caminho 284" d="M991.051 689.5s-3.054-2.016-6.081-.582c0 0 .932 1.794 4.764 1.625z" transform="translate(13429.616 -2339.115)" style="fill:#6c63ff"/>
        <path data-name="Caminho 285" d="M1004.878 693.25s.93 3.539-1.4 5.947c0 0-1.4-1.459 0-5.033z" transform="translate(13416.178 -2342.754)" style="fill:#6c63ff"/>
        <path data-name="Caminho 286" d="M1005.043 672.886s-.226-3.01-7.023-2.011a3.242 3.242 0 0 0 2.353 2.86 3.925 3.925 0 0 0 4.67-.849z" transform="translate(13419.81 -2325.788)" style="fill:#6c63ff"/>
        <path data-name="Caminho 287" d="M1021.974 679.5s2.873.922.311 7.3a3.251 3.251 0 0 1-2.237-2.96 3.9 3.9 0 0 1 1.926-4.34z" transform="translate(13403.307 -2332.421)" style="fill:#6c63ff"/>
        <path data-name="Caminho 288" d="M1023.584 648.766s.39-4.953-6.556-4.446c0 0-.5 4.473 5.331 5.636z" transform="translate(13405.533 -2305.957)" style="fill:#6c63ff"/>
        <path data-name="Caminho 289" d="M1038.036 626.961s-.952-5.614-7.9-3.942c0 0-.025 4.854 6.762 5.279z" transform="translate(13395.672 -2289.743)" style="fill:#6c63ff"/>
        <path data-name="Caminho 290" d="M1049.785 604.049s-1.6-5.467-8.475-3.832c0 0 1.638 4.918 8.017 4.841z" transform="translate(13387.278 -2272.613)" style="fill:#5d99c6"/>
        <path data-name="Caminho 291" d="M1063.431 580.858s-1.558-5.674-8.2-3.976c0 0 2.217 5.391 7.761 4.936z" transform="translate(13376.817 -2255.068)" style="fill:#5d99c6"/>
        <path data-name="Caminho 292" d="M1074.141 555.252s-1.2-6.939-7.391-5.4c0 0 1.8 6.313 6.936 6.414z" transform="translate(13368.16 -2234.825)" style="fill:#5d99c6"/>
        <path data-name="Caminho 293" d="M1080.944 530.05s-1.439-6.993-7.7-4.97c0 0 2.455 6.611 7.26 5.927z" transform="translate(13363.283 -2216.102)" style="fill:#5d99c6"/>
        <path data-name="Caminho 294" d="M1087.448 501.336s-2.284-7-7.128-6.807c0 0 2.334 7.389 6.723 8.2z" transform="translate(13357.963 -2193.417)" style="fill:#5d99c6"/>
        <path data-name="Caminho 295" d="M1092.647 474.644s-2.485-8.42-6.427-7.771c0 0 1.72 6.437 6.288 9.083z" transform="translate(13353.529 -2172.61)" style="fill:#5d99c6"/>
        <path data-name="Caminho 296" d="M1095.033 447.937s-2.331-7.016-6.213-7.3c0 0 1.585 6.9 6.136 9.121z" transform="translate(13351.575 -2152.924)" style="fill:#5d99c6"/>
        <path data-name="Caminho 297" d="M1099.177 421.922s-2.905-7.023-5.468-7.182c0 0 1.262 6.916 5.219 8.336z" transform="translate(13347.9 -2133.461)" style="fill:#5d99c6"/>
        <path data-name="Caminho 298" d="M1103.834 394.141s-1.787-7.627-4.354-8.261c0 0 .35 6.24 4.1 8.833z" transform="translate(13343.564 -2111.773)" style="fill:#5d99c6"/>
        <path data-name="Caminho 299" d="M1108.929 365.808s-1.879-6.081-3.959-7.008c0 0 .41 7.17 3.479 8.495z" transform="translate(13339.438 -2091.423)" style="fill:#5d99c6"/>
        <path data-name="Caminho 300" d="m1119.4 333.581.378-10.721s-3.89 8.082-.659 12.6z" transform="translate(13329.77 -2064.415)" style="fill:#5d99c6"/>
        <path data-name="Caminho 301" d="M1131.634 298.1s2.8-7.828 3.479-8.266c0 0-5.492 5.08-4.956 11.614z" transform="translate(13320.538 -2039.594)" style="fill:#5d99c6"/>
        <path data-name="Caminho 302" d="M1040.8 662.122s4.926-.644 4.779 6.318c0 0-4.451.726-5.905-5.033z" transform="translate(13388.511 -2319.351)" style="fill:#6c63ff"/>
        <path data-name="Caminho 303" d="M1059.416 639.06s5.691-.017 5.219 7.108c0 0-4.779.855-6.355-5.761z" transform="translate(13374.526 -2302.031)" style="fill:#5d99c6"/>
        <path data-name="Caminho 304" d="M1074.247 617.014s5.167-2.423 8.472 3.832c0 0-4.772 2.018-8.929-2.821z" transform="translate(13362.87 -2285.117)" style="fill:#5d99c6"/>
        <path data-name="Caminho 305" d="M1087.367 592.418s5.291-2.577 8.4 3.531c0 0-5.512 1.9-8.835-2.565z" transform="translate(13352.995 -2266.576)" style="fill:#5d99c6"/>
        <path data-name="Caminho 306" d="M1095.513 566.383s5.092-4.864 9.156.055c0 0-5.2 4-9.389 1.029z" transform="translate(13346.721 -2245.804)" style="fill:#5d99c6"/>
        <path data-name="Caminho 307" d="M1102.524 539.04s5.122-4.97 9.153.229c0 0-5.748 4.083-9.337.815z" transform="translate(13341.416 -2225.259)" style="fill:#5d99c6"/>
        <path data-name="Caminho 308" d="M1106.93 505.926s3.946-6.213 8.594-4.826c0 0-4.1 6.578-8.549 6.285z" transform="translate(13337.966 -2198.206)" style="fill:#5d99c6"/>
        <path data-name="Caminho 309" d="M1111.3 478.07s3.976-7.824 7.739-6.462c0 0-2.868 6.014-7.841 7.781z" transform="translate(13334.758 -2176.076)" style="fill:#5d99c6"/>
        <path data-name="Caminho 310" d="M1111.518 451.822s4.088-6.158 7.918-5.405c0 0-3.343 6.245-8.316 7.187z" transform="translate(13334.817 -2157.217)" style="fill:#5d99c6"/>
        <path data-name="Caminho 311" d="M1114 422.049s3.169-6.911 5.743-6.959c0 0-1.521 6.862-5.53 8.132z" transform="translate(13332.653 -2133.724)" style="fill:#5d99c6"/>
        <path data-name="Caminho 312" d="M1116.5 397.313s3.522-7 6.168-7.013c0 0-1.8 5.984-6.052 7.627z" transform="translate(13330.775 -2115.094)" style="fill:#5d99c6"/>
        <path data-name="Caminho 313" d="M1118.63 369.267s2.634-5.791 4.816-6.447c0 0-1.317 7.058-4.526 7.983z" transform="translate(13329.174 -2094.444)" style="fill:#5d99c6"/>
        <path data-name="Caminho 314" d="m1122.79 338.029 5.888-8.969s-1.508 8.847-6.747 10.687z" transform="translate(13326.694 -2069.074)" style="fill:#5d99c6"/>
        <path data-name="Caminho 315" d="M1133.031 309.415s6.842-4.722 7.09-5.485c0 0-3.479 6.613-9.941 7.781z" transform="translate(13320.495 -2050.19)" style="fill:#5d99c6"/>
        <path data-name="Caminho 316" d="M1142.729 294.635s7.856-7.553 9.862-7.545a12.824 12.824 0 0 0-10.05 7.143z" transform="translate(13311.206 -2037.535)" style="fill:#5d99c6"/>
        <path data-name="Caminho 317" d="m1118.94 334.414.286.037c1.476-11.554 3.628-18.391 6.059-19.228l-.094-.273c-2.578.895-4.745 7.627-6.251 19.464z" transform="translate(13328.941 -2058.471)" style="fill:#5d99c6"/>
        <path data-name="Caminho 318" d="m1110.2 418.308.432.035c.092-1.079.161-2.182.209-3.283.413-9.563 1.051-18.346 1.891-24.929l-.249-.311c-.843 6.6-1.663 15.645-2.075 25.223a77.266 77.266 0 0 1-.208 3.265z" transform="translate(13335.509 -2114.734)" style="fill:#5d99c6"/>
        <path data-name="Caminho 319" d="M976.294 554.282a56.294 56.294 0 0 0 15.587-11.539 62.681 62.681 0 0 0 11.395-16.154 73.178 73.178 0 0 0 6.626-25.459l-.45.211c-1.677 19.932-10.751 33.551-17.966 40.969a55.7 55.7 0 0 1-15.426 11.432z" transform="translate(13436.313 -2198.381)" style="fill:#5d99c6"/>
        <path data-name="Caminho 320" d="M327.8 132.69H89a2.127 2.127 0 0 0-2.127 2.127v6.2h243.053v-6.2a2.127 2.127 0 0 0-2.126-2.127z" transform="translate(14104.517 -1921.507)" style="fill:#3f3d56"/>
        <path data-name="Caminho 321" d="M86.87 166.19v139.482a4.29 4.29 0 0 0 4.29 4.29h234.477a4.29 4.29 0 0 0 4.29-4.29V166.19z" transform="translate(14104.517 -1946.681)" style="fill:#fff"/>
        <path data-name="Caminho 357" d="M86.87 166.19v139.482a4.29 4.29 0 0 0 4.29 4.29h234.477a4.29 4.29 0 0 0 4.29-4.29V166.19z" transform="translate(14104.517 -1946.681)" style="fill:#fff"/>
        <circle data-name="Elipse 71" cx=".994" cy=".994" r=".994" transform="translate(14194.242 -1785.71)" style="opacity:.8;fill:#fa5959"/>
        <circle data-name="Elipse 72" cx=".994" cy=".994" r=".994" transform="translate(14196.976 -1785.71)" style="fill:#fed253;opacity:.8"/>
        <circle data-name="Elipse 73" cx=".994" cy=".994" r=".994" transform="translate(14199.71 -1785.71)" style="fill:#8ccf4d;opacity:.8"/>
        <path data-name="Retângulo 121" transform="translate(14213.98 -1757.234)" style="opacity:.05" d="M0 0h195.34v85.895H0z"/>
        <path data-name="Retângulo 122" transform="translate(14215.471 -1756.583)" style="fill:#3f3d56" d="M0 0h192.358v84.001H0z"/>
        <path data-name="Caminho 322" d="M336.916 349.38a19.136 19.136 0 1 0 19.136 19.136 19.136 19.136 0 0 0-19.136-19.136zm3.432 19.6v9.061h-6.765v-9.061a5.6 5.6 0 1 1 6.765 0z" transform="translate(13930.993 -2084.344)" style="fill:#71aedc"/>
        <path data-name="Caminho 323" d="M336.916 349.38a19.136 19.136 0 1 0 19.136 19.136 19.136 19.136 0 0 0-19.136-19.136zm3.432 19.6v9.061h-6.765v-9.061a5.6 5.6 0 1 1 6.765 0z" transform="translate(13930.993 -2084.344)" style="opacity:.05;fill:#5d99c6"/>
        <path data-name="Caminho 324" d="M320.384 327.38a24.6 24.6 0 1 0 24.6 24.6 24.6 24.6 0 0 0-24.6-24.6zm4.411 25.2v11.648h-8.7v-11.653a7.207 7.207 0 1 1 8.7 0z" transform="translate(13947.525 -2067.812)" style="fill:#5d99c6"/>
        <path data-name="Caminho 356" d="M0 0h79.528v8.45H0z" transform="translate(14302.703 -1719.056)" style="fill:#fff"/>
        <path data-name="Retângulo 124" transform="translate(14365.083 -1703.648)" style="fill:#5d99c6" d="M0 0h17.148v8.45H0z"/>
        <path data-name="Caminho 325" d="M555.384 424.62h-1.439l1.28-1.277a.127.127 0 0 0 0-.176.124.124 0 0 0-.176 0l-1.28 1.28V423a.124.124 0 0 0-.124-.124.127.127 0 0 0-.124.124v1.441l-1.277-1.287a.124.124 0 0 0-.176 0 .127.127 0 0 0 0 .176l1.28 1.277H551.9a.127.127 0 0 0-.124.124.124.124 0 0 0 .124.124h1.441l-1.28 1.28a.127.127 0 0 0 0 .176.129.129 0 0 0 .176 0l1.277-1.28v1.439a.124.124 0 1 0 .249 0v-1.439l1.28 1.28a.129.129 0 0 0 .176 0 .127.127 0 0 0 0-.176l-1.28-1.28h1.439a.121.121 0 1 0 0-.241z" transform="translate(13755.148 -2139.578)" style="fill:#5d99c6"/>
        <path data-name="Caminho 326" d="M576.384 424.62h-1.439l1.28-1.277a.127.127 0 0 0 0-.176.124.124 0 0 0-.176 0l-1.28 1.28V423a.124.124 0 0 0-.124-.124.127.127 0 0 0-.124.124v1.441l-1.277-1.287a.124.124 0 0 0-.176 0 .127.127 0 0 0 0 .176l1.28 1.277H572.9a.127.127 0 0 0-.124.124.124.124 0 0 0 .124.124h1.441l-1.28 1.28a.127.127 0 0 0 0 .176.129.129 0 0 0 .176 0l1.277-1.28v1.439a.124.124 0 1 0 .249 0v-1.439l1.28 1.28a.129.129 0 0 0 .176 0 .127.127 0 0 0 0-.176l-1.28-1.28h1.439a.121.121 0 1 0 0-.241z" transform="translate(13739.367 -2139.578)" style="fill:#5d99c6"/>
        <path data-name="Caminho 327" d="M597.384 424.62h-1.439l1.28-1.277a.127.127 0 0 0 0-.176.124.124 0 0 0-.177 0l-1.28 1.28V423a.124.124 0 0 0-.124-.124.127.127 0 0 0-.124.124v1.441l-1.277-1.287a.124.124 0 0 0-.177 0 .127.127 0 0 0 0 .176l1.28 1.277H593.9a.127.127 0 0 0-.124.124.124.124 0 0 0 .124.124h1.441l-1.28 1.28a.127.127 0 0 0 0 .176.129.129 0 0 0 .177 0l1.277-1.28v1.439a.124.124 0 1 0 .248 0v-1.439l1.28 1.28a.129.129 0 0 0 .177 0 .127.127 0 0 0 0-.176l-1.28-1.28h1.439a.121.121 0 1 0 0-.241z" transform="translate(13723.586 -2139.578)" style="fill:#5d99c6"/>
        <path data-name="Caminho 328" d="M618.384 424.62h-1.439l1.28-1.277a.127.127 0 0 0 0-.176.124.124 0 0 0-.176 0l-1.28 1.28V423a.124.124 0 0 0-.124-.124.127.127 0 0 0-.124.124v1.441l-1.278-1.287a.124.124 0 0 0-.176 0 .127.127 0 0 0 0 .176l1.28 1.277H614.9a.127.127 0 0 0-.124.124.124.124 0 0 0 .124.124h1.441l-1.28 1.28a.127.127 0 0 0 0 .176.129.129 0 0 0 .176 0l1.278-1.28v1.439a.124.124 0 1 0 .248 0v-1.439l1.28 1.28a.129.129 0 0 0 .176 0 .127.127 0 0 0 0-.176l-1.28-1.28h1.439a.121.121 0 1 0 0-.241z" transform="translate(13707.805 -2139.578)" style="fill:#5d99c6"/>
        <path data-name="Caminho 329" d="M639.384 424.62h-1.439l1.28-1.277a.127.127 0 0 0 0-.176.124.124 0 0 0-.177 0l-1.28 1.28V423a.124.124 0 0 0-.124-.124.127.127 0 0 0-.124.124v1.441l-1.278-1.287a.124.124 0 0 0-.176 0 .127.127 0 0 0 0 .176l1.28 1.277H635.9a.127.127 0 0 0-.124.124.124.124 0 0 0 .124.124h1.442l-1.28 1.28a.127.127 0 0 0 0 .176.129.129 0 0 0 .176 0l1.278-1.28v1.439a.124.124 0 1 0 .248 0v-1.439l1.28 1.28a.129.129 0 0 0 .177 0 .127.127 0 0 0 0-.176l-1.28-1.28h1.439a.121.121 0 1 0 0-.241z" transform="translate(13692.024 -2139.578)" style="fill:#5d99c6"/>
        <path data-name="Caminho 330" d="M660.383 424.62h-1.439l1.28-1.277a.127.127 0 0 0 0-.176.124.124 0 0 0-.176 0l-1.28 1.28V423a.124.124 0 0 0-.124-.124.127.127 0 0 0-.124.124v1.441l-1.277-1.287a.124.124 0 0 0-.176 0 .127.127 0 0 0 0 .176l1.28 1.277H656.9a.127.127 0 0 0-.124.124.124.124 0 0 0 .124.124h1.442l-1.28 1.28a.127.127 0 0 0 0 .176.129.129 0 0 0 .176 0l1.277-1.28v1.439a.124.124 0 1 0 .248 0v-1.439l1.28 1.28a.129.129 0 0 0 .176 0 .127.127 0 0 0 0-.176l-1.28-1.28h1.439a.121.121 0 1 0 0-.241z" transform="translate(13676.243 -2139.578)" style="fill:#5d99c6"/>
        <path data-name="Caminho 331" d="M681.384 424.62h-1.439l1.28-1.277a.127.127 0 0 0 0-.176.124.124 0 0 0-.176 0l-1.28 1.28V423a.124.124 0 0 0-.124-.124.127.127 0 0 0-.124.124v1.441l-1.277-1.287a.124.124 0 0 0-.176 0 .127.127 0 0 0 0 .176l1.28 1.277H677.9a.127.127 0 0 0-.124.124.124.124 0 0 0 .124.124h1.441l-1.28 1.28a.127.127 0 0 0 0 .176.129.129 0 0 0 .176 0l1.277-1.28v1.439a.124.124 0 1 0 .249 0v-1.439l1.28 1.28a.129.129 0 0 0 .176 0 .127.127 0 0 0 0-.176l-1.28-1.28h1.439a.121.121 0 1 0 0-.241z" transform="translate(13660.462 -2139.578)" style="fill:#5d99c6"/>
        <path data-name="Caminho 332" d="M702.384 424.62h-1.439l1.28-1.277a.127.127 0 0 0 0-.176.124.124 0 0 0-.176 0l-1.28 1.28V423a.124.124 0 0 0-.124-.124.127.127 0 0 0-.124.124v1.441l-1.277-1.287a.124.124 0 0 0-.177 0 .127.127 0 0 0 0 .176l1.28 1.277H698.9a.127.127 0 0 0-.124.124.124.124 0 0 0 .124.124h1.441l-1.28 1.28a.127.127 0 0 0 0 .176.129.129 0 0 0 .177 0l1.277-1.28v1.439a.124.124 0 1 0 .248 0v-1.439l1.28 1.28a.129.129 0 0 0 .176 0 .127.127 0 0 0 0-.176l-1.28-1.28h1.439a.121.121 0 1 0 0-.241z" transform="translate(13644.681 -2139.578)" style="fill:#5d99c6"/>
        <path data-name="Caminho 333" d="M723.384 424.62h-1.439l1.28-1.277a.127.127 0 0 0 0-.176.124.124 0 0 0-.176 0l-1.28 1.28V423a.124.124 0 0 0-.124-.124.127.127 0 0 0-.124.124v1.441l-1.277-1.287a.124.124 0 0 0-.177 0 .127.127 0 0 0 0 .176l1.28 1.277H719.9a.127.127 0 0 0-.124.124.124.124 0 0 0 .124.124h1.441l-1.28 1.28a.127.127 0 0 0 0 .176.129.129 0 0 0 .177 0l1.277-1.28v1.439a.124.124 0 1 0 .248 0v-1.439l1.28 1.28a.129.129 0 0 0 .176 0 .127.127 0 0 0 0-.176l-1.28-1.28h1.439a.121.121 0 1 0 0-.241z" transform="translate(13628.9 -2139.578)" style="fill:#5d99c6"/>
        <path data-name="Caminho 334" d="M744.384 424.62h-1.439l1.28-1.277a.127.127 0 0 0 0-.176.124.124 0 0 0-.176 0l-1.28 1.28V423a.124.124 0 0 0-.124-.124.127.127 0 0 0-.124.124v1.441l-1.277-1.287a.124.124 0 0 0-.176 0 .127.127 0 0 0 0 .176l1.28 1.277H740.9a.127.127 0 0 0-.124.124.124.124 0 0 0 .124.124h1.441l-1.28 1.28a.127.127 0 0 0 0 .176.129.129 0 0 0 .176 0l1.277-1.28v1.439a.124.124 0 1 0 .249 0v-1.439l1.28 1.28a.129.129 0 0 0 .176 0 .127.127 0 0 0 0-.176l-1.28-1.28h1.439a.121.121 0 1 0 0-.241z" transform="translate(13613.119 -2139.578)" style="fill:#5d99c6"/>
        <path data-name="Caminho 335" d="M765.383 424.62h-1.439l1.28-1.277a.127.127 0 0 0 0-.176.124.124 0 0 0-.177 0l-1.28 1.28V423a.124.124 0 0 0-.124-.124.127.127 0 0 0-.124.124v1.441l-1.277-1.287a.124.124 0 0 0-.176 0 .127.127 0 0 0 0 .176l1.28 1.277H761.9a.127.127 0 0 0-.124.124.124.124 0 0 0 .124.124h1.441l-1.28 1.28a.127.127 0 0 0 0 .176.129.129 0 0 0 .176 0l1.277-1.28v1.439a.124.124 0 1 0 .248 0v-1.439l1.28 1.28a.129.129 0 0 0 .177 0 .127.127 0 0 0 0-.176l-1.28-1.28h1.439a.121.121 0 1 0 0-.241z" transform="translate(13597.339 -2139.578)" style="fill:#5d99c6"/>
        <path data-name="Caminho 336" d="M823.177 488.274a4.451 4.451 0 0 0-.112-.892 2.9 2.9 0 0 0-1.558-2.11 13.084 13.084 0 0 1-2.47-1.044c-.149-2.664.462-5.391-.2-7.973a20.287 20.287 0 0 1-.768-2.816c-.137-1.2.191-2.485-.288-3.594a3.547 3.547 0 0 0-2.1-1.814 11.19 11.19 0 0 0-2.8-.5c-1.193-.1-5.055-.554-6.4.512a1.4 1.4 0 0 0-.248.249.987.987 0 0 0-.08.129l-.012.02a1 1 0 0 0-.067.162 1.258 1.258 0 0 0-.042.186v.447c.017.224.05.447.05.669a1.441 1.441 0 0 1-.03.328 2.3 2.3 0 0 1-.413.805l-.045.065c-.027.04-.055.077-.08.117l-.065.1c-.02.03-.04.057-.057.09a1.217 1.217 0 0 0-.064.127c0 .025-.027.047-.037.072a1.223 1.223 0 0 0-.075.209 1.387 1.387 0 0 0-.015.661 2.461 2.461 0 0 0 .34.783c.062.1.129.2.2.3l.174.236a5.362 5.362 0 0 0-.052.7 5.142 5.142 0 0 0 1.963 4.041 15.228 15.228 0 0 1-.032 3.154 18.498 18.498 0 0 1-.162 1.203 2.523 2.523 0 0 1-1.086-.082 5.12 5.12 0 0 0-.5-.191c-.723-.181-1.461.539-2.177.321a.291.291 0 0 1-.032.1.974.974 0 0 0-.5-.147 1.812 1.812 0 0 1-1.079-.619l-.947-.892a1.044 1.044 0 0 1-.164-.184 1.288 1.288 0 0 1-.114-.306 3.523 3.523 0 0 0-.917-1.315.622.622 0 0 0-.271-.2.418.418 0 0 0-.124 0 1.08 1.08 0 0 0-.082-.1 2.344 2.344 0 0 0-.206-.209c-.452-.418-.5-.775-.89-1.243a11.938 11.938 0 0 1-.93-1.4 10.405 10.405 0 0 0-.132-.8 10.288 10.288 0 0 0-.544-1.814l-.5-1.1-.057.057c-.36-.537-.746-.83-1.091-.76-.579.119-.865 1.243-.773 2.711l.2 1.491a.459.459 0 0 0 .027.112 2.758 2.758 0 0 0-.055.537c0 .209.194.363.3.549a1.554 1.554 0 0 1 .248.847c-.012.107-.045.209-.05.313a1.205 1.205 0 0 0 .234.646l1.243 2.088.249.437.015.02a1.062 1.062 0 0 0 .333.383 4.552 4.552 0 0 0 .41 1.509c.042.094.089.184.139.273a8.8 8.8 0 0 0 1.173 1.523l.591.663c.584.651 1.168 1.3 1.8 1.906a2.413 2.413 0 0 0 .805.564.912.912 0 0 0 .9-.132v.924a.519.519 0 0 1 .393.818 20.5 20.5 0 0 1-1.839 3.892 8.286 8.286 0 0 1 1.541 1.176 6.927 6.927 0 0 1 .8 1.086c.022.184.04.365.05.547.184 2.962-.962 5.9-1.988 8.726a6.8 6.8 0 0 0-.594 2.47 4.845 4.845 0 0 0-.557.4 3.686 3.686 0 0 1 .1 1.576 2.791 2.791 0 0 1-.206.994 6.991 6.991 0 0 1-.358.639 9.482 9.482 0 0 0-.915 3.783c-.077.783.226 1.74-.129 2.44a9.985 9.985 0 0 0-1.243 3.822 3.834 3.834 0 0 1-.114.892c-.077.249-.214.46-.283.7a3.007 3.007 0 0 0-.05.994 9.514 9.514 0 0 1-.522 3.507 4.767 4.767 0 0 0-.41 2.749 3.874 3.874 0 0 0-1.051 2.309 3.65 3.65 0 0 1-.08.659 3.2 3.2 0 0 1-.3.634 5.546 5.546 0 0 0-.676 2.982 8.3 8.3 0 0 0-1.34 3.5c-.221 1.24-.318 2.5-.6 3.728a34.752 34.752 0 0 0-1.2 4.918 3.465 3.465 0 0 0-1.307 2.453 10.922 10.922 0 0 1-.574 2.8c-.2.452-.5.857-.691 1.32a6.066 6.066 0 0 0-.3 1.136 4.433 4.433 0 0 0-.077 1.864 2.813 2.813 0 0 1-.728.554c.04-.154.072-.308.1-.465-.641.582-1.8.378-2.316 1.076a1.049 1.049 0 0 0 .248 1.439 1.99 1.99 0 0 0 .514.221 8.221 8.221 0 0 0 3.8.587 1.134 1.134 0 0 0 .43-.137 1.384 1.384 0 0 0 .4-.462c.191-.3.383-.606.572-.91a11.8 11.8 0 0 0 1.394.326c.047.4.082.8.1 1.193.248.05.581.065.7-.167a.6.6 0 0 0 .042-.276c0-.176.025-.41.04-.649h.05a4.721 4.721 0 0 0 2.2-.445c-.266-2.2.611-4.354 1.372-6.437.8-2.192 1.491-4.424 2.185-6.656.5-1.571 1.046-3.092 1.533-4.665q.919-2.982 1.846-5.965c.268-.875.539-1.74.847-2.609a40.648 40.648 0 0 1 2.3-5.127c.249-.47.5-.935.7-1.422.249-.594.425-1.215.624-1.829a28.336 28.336 0 0 1 1.561-3.673c.017-.032.03-.062.047-.092.2.823.4 1.658.537 2.485a9.446 9.446 0 0 1 .042 3.072 10.118 10.118 0 0 0-.318 2.083 12.861 12.861 0 0 0 .813 2.791 10.616 10.616 0 0 1 .278 2.137c.07 1.118.676 2.373.248 3.41-1.33 3.283-.686 6.991-1.444 10.438-.39 1.77-1.586 3.432-1.491 5.241q.1 1.926.338 3.842a3.656 3.656 0 0 0 .311 1.166 4.29 4.29 0 0 0 .34.557c-.109.042-.2.154-.281.39a1.533 1.533 0 0 0 .552 1.74 2.417 2.417 0 0 0 .718.248 3.778 3.778 0 0 0 1.039.144 2.423 2.423 0 0 0 .326-.04 11.855 11.855 0 0 0 1.176.422 2.563 2.563 0 0 0 .032.306.381.381 0 0 0 .129.281.388.388 0 0 0 .2.035h1.35v-.338a1.111 1.111 0 0 0 .857-.278 1.326 1.326 0 0 0 .248-.517q.552-1.871 1.1-3.745a11.977 11.977 0 0 0 .534-4.275c-.48-4.58.574-9.175.231-13.768a32.979 32.979 0 0 1 .423-8.261c.112-.616.249-1.243.3-1.856.109-1.158-.025-2.329.057-3.479.027-.4.082-.8.132-1.2a57.791 57.791 0 0 0 .534-7.493 23.634 23.634 0 0 0-.154-2.485 1.419 1.419 0 0 0 .678-.4 1.69 1.69 0 0 0 .162-1.061 7.694 7.694 0 0 1 .669-2.54 30.179 30.179 0 0 0 .939-3.494 12.194 12.194 0 0 0 .417-2.92q0-.149-.015-.3a.771.771 0 0 0 .229-.249 1.443 1.443 0 0 0 .119-.46c.089-.634.181-1.27.271-1.906l.2-1.364.79-5.515c.067-.48.137-.957.2-1.434l.206-1.427c.022-.169.047-.338.065-.5.614-1.004.036-2.356-.029-3.509zm-6.593 20.647a4.541 4.541 0 0 1-.5-2.16h-.027a1.109 1.109 0 0 0-.032-.7c-.077-.181-.211-.336-.293-.517a1.892 1.892 0 0 1-.134-.7 18.971 18.971 0 0 1 .355-4.508c.032-.174.067-.35.1-.524a1.3 1.3 0 0 0 .283-.221 2.015 2.015 0 0 0 .32-.5c.281-.564.537-1.138.773-1.722.077-.189.189-.408.38-.455a10.91 10.91 0 0 1-.482 4.25 2.692 2.692 0 0 0-.249.671c-.055.37.1.746.045 1.113-.027.191-.109.368-.142.557a.544.544 0 0 0 .144.527.438.438 0 0 0 .107.055c-.015.1-.027.2-.037.3-.02.2-.03.4-.042.514a16 16 0 0 0-.067 1.829c0 .659.025 1.317.015 1.988a1.351 1.351 0 0 1-.094.564.981.981 0 0 1-.189.249 6.456 6.456 0 0 0-.235-.61z" transform="translate(13579.555 -2172.999)" style="fill:url(#h74or6jrga)"/>
        <ellipse data-name="Elipse 74" cx="1.402" cy="3.969" rx="1.402" ry="3.969" transform="rotate(-11.6 -1189.589 -71630.96)" style="fill:#fbbebe"/>
        <circle data-name="Elipse 75" cx="5.135" cy="5.135" r="5.135" transform="translate(14385.449 -1703.33)" style="fill:#fbbebe"/>
        <path data-name="Caminho 340" d="M912.991 614.417a12.185 12.185 0 0 1-.415 2.905 29.992 29.992 0 0 1-.939 3.479 7.657 7.657 0 0 0-.664 2.535 1.686 1.686 0 0 1-.164 1.059 1.546 1.546 0 0 1-.726.415.907.907 0 0 0-.611.544 3.84 3.84 0 0 1-.517-1.138q-.669-2.048-1.243-4.118a.535.535 0 0 1 .035-.5.618.618 0 0 1 .216-.122 2.235 2.235 0 0 0 .688-.442 1.006 1.006 0 0 0 .229-.3 1.339 1.339 0 0 0 .1-.562c0-.659 0-1.315-.017-1.973a16.5 16.5 0 0 1 .07-1.822c0-.119.022-.311.042-.515.037-.39.112-.842.323-.994.316-.211 1.26.072 1.618.122.616.085 1.243.184 1.844.3a4.922 4.922 0 0 1 .131 1.127z" transform="translate(13487.707 -2282.297)" style="fill:#3f3d56"/>
        <path data-name="Caminho 341" d="M828.668 504.907c-.2.4-.676.589-1.044.84l-1.26.865a.84.84 0 0 1-.624.214.82.82 0 0 1-.465-.435.09.09 0 0 0 0-.02l-.261-.437-1.243-2.083a1.185 1.185 0 0 1-.231-.641c0-.107.037-.206.047-.313a1.5 1.5 0 0 0-.249-.845c-.1-.186-.3-.34-.293-.549a1.987 1.987 0 0 1 .139-.8 1.624 1.624 0 0 1 .544-.582c.117-.085.236-.164.36-.249a.711.711 0 0 1 .216-.1c.206-.042.41.129.619.137.9.6 1.243 1.74 1.948 2.56.4.467.437.825.887 1.243.072.065.142.134.209.206a1.44 1.44 0 0 1 .224.323c.084.211.579.459.477.666z" transform="translate(13551.299 -2197.353)" style="fill:#3f3d56"/>
        <path data-name="Caminho 342" d="M874.131 506.574a4.625 4.625 0 0 1 .552 2.5 1.562 1.562 0 0 1-.216.659 2.128 2.128 0 0 1-1.762.681 1.039 1.039 0 0 0-.766.249.7.7 0 0 0 .047.85 1.919 1.919 0 0 0 .76.5 6.733 6.733 0 0 0 3.273.726c.522-.05 1.029-.2 1.548-.278a16.249 16.249 0 0 1 1.7-.094c.676-.025 1.35-.092 2.023-.159l1.784-.176a.4.4 0 0 0 .266-.1c.132-.154-.037-.38-.2-.5-.947-.7-2.152-1.183-2.692-2.237a13.16 13.16 0 0 1-.51-1.625 13.658 13.658 0 0 1-.591-1.568 10.389 10.389 0 0 1-.082-1.446 1.941 1.941 0 0 0-.5-1.322 2.073 2.073 0 0 0-1.352-.435 4.377 4.377 0 0 0-3.3 1.069c-.226.226-.42.5-.654.7s-.552.263-.4.532.457.435.621.671a5.712 5.712 0 0 1 .451.803z" transform="translate(13514.647 -2199.632)" style="fill:#fbbebe"/>
        <path data-name="Caminho 343" d="M867.984 527.772a28.234 28.234 0 0 1-1.521 5.6 21.084 21.084 0 0 0-.895 2.51c-.191.77-.154 1.6-.331 2.368a67.226 67.226 0 0 0-.614 2.9 18.98 18.98 0 0 0-.353 4.5 1.882 1.882 0 0 0 .134.693c.082.179.214.333.291.517a1.242 1.242 0 0 1-.07.994 2.879 2.879 0 0 1-.512.775c-2.316.691-4.794.465-7.207.611-2.224.134-4.473.591-6.665.211a5.285 5.285 0 0 1 .522-3c1.031-2.816 2.172-5.748 1.988-8.7a9.026 9.026 0 0 0-.117-1.026 13.607 13.607 0 0 1 .661-6.28 10.778 10.778 0 0 0 .283-3.922 7.165 7.165 0 0 1-.017-1.285 2.259 2.259 0 0 1 .467-1.2c0-.017.022-.035.035-.052a.341.341 0 0 1 .186 0 .16.16 0 0 0 .124 0l.027-.017a.062.062 0 0 1 .072 0c.057.035.089.154.214.176a4.958 4.958 0 0 0 .554.052 2.983 2.983 0 0 1 .661.094h.03a1.94 1.94 0 0 0 .964-.082 2.56 2.56 0 0 0 .591-.229c.055-.06.4-.114.467-.157.226-.137.176-.778.224-1.041a2.866 2.866 0 0 1 .186-.77 1.313 1.313 0 0 1 1.064-.619 5.666 5.666 0 0 1 1.275.114c.927.132 1.876.109 2.786.323a2.075 2.075 0 0 0 1.377.06c.114.027.132.127.132.248a1.588 1.588 0 0 1-.07.341c-.159.686.38 1.317.877 1.814a2.815 2.815 0 0 0 .733.584c.248.114.5.161.746.286a1.356 1.356 0 0 1 .5.455 1.9 1.9 0 0 1 .283.723 4.325 4.325 0 0 1-.082 1.431z" transform="translate(13530.918 -2213.601)" style="fill:#3f3d56"/>
        <path data-name="Caminho 344" d="M875.056 535.525a28.238 28.238 0 0 1-1.521 5.6 21.1 21.1 0 0 0-.895 2.51c-.191.77-.154 1.6-.33 2.368a67.226 67.226 0 0 0-.614 2.9 1.89 1.89 0 0 1-.162.082 3.812 3.812 0 0 1-.974.313 5.966 5.966 0 0 1-1.819-.06l-3.547-.475a7.144 7.144 0 0 1-3.976-1.382 8.485 8.485 0 0 1-1.387-1.894 9.011 9.011 0 0 0-.117-1.026 13.607 13.607 0 0 1 .661-6.28 10.779 10.779 0 0 0 .283-3.922 7.16 7.16 0 0 1-.017-1.285 2.258 2.258 0 0 1 .467-1.2 1.76 1.76 0 0 1 .221-.05 1.114 1.114 0 0 1 .152-.02h.072a1.082 1.082 0 0 1 .248.03 4.5 4.5 0 0 1 .5.191h.03a1.9 1.9 0 0 0 .661.094c.328 0 .666-.052.994-.075a1.834 1.834 0 0 1 1.178.211 7.045 7.045 0 0 1 .656.6 2.818 2.818 0 0 0 .828.45 8.8 8.8 0 0 0 6.616-.139 1.3 1.3 0 0 1 .663-.169 1.243 1.243 0 0 1 .477.2c.149.087.3.171.447.248a1.9 1.9 0 0 1 .283.723 4.325 4.325 0 0 1-.078 1.457z" transform="translate(13523.846 -2221.353)" style="opacity:.1"/>
        <path data-name="Caminho 345" d="M870.73 532.437a13.262 13.262 0 0 1-2.833-1.243 1.27 1.27 0 0 0-.477-.2 1.334 1.334 0 0 0-.666.169 8.791 8.791 0 0 1-6.613.139 2.875 2.875 0 0 1-.828-.45 7.468 7.468 0 0 0-.656-.6c-.818-.529-1.949.092-2.863-.248a5.079 5.079 0 0 0-.5-.191c-.723-.181-1.459.539-2.17.321a12.091 12.091 0 0 0-.584 2.217 24.178 24.178 0 0 0-.161 2.614c0 .524-.025 1.049 0 1.573a.516.516 0 0 1 .393.815 20.372 20.372 0 0 1-1.834 3.879 8.435 8.435 0 0 1 1.536 1.173c.87.92 1.3 2.209 2.237 3.059a7.182 7.182 0 0 0 3.976 1.379l3.546.475a6.062 6.062 0 0 0 1.822.062 3.837 3.837 0 0 0 .972-.316 1.74 1.74 0 0 0 .542-.358 1.99 1.99 0 0 0 .321-.5c.281-.562.537-1.136.773-1.717.082-.206.206-.447.43-.465 1.317-1.188 2.56-2.406 3.877-3.594a8.589 8.589 0 0 0 1.414-1.491c.654-.967.06-2.336 0-3.5a4.415 4.415 0 0 0-.112-.887 2.848 2.848 0 0 0-1.542-2.115z" transform="translate(13530.337 -2219.911)" style="fill:#5d99c6"/>
        <path data-name="Caminho 346" d="M835.406 517.324c-.2.4-.676.589-1.044.84l-1.26.865a.84.84 0 0 1-.624.214.82.82 0 0 1-.465-.435v-.179a1.668 1.668 0 0 1 .08-.594 1.852 1.852 0 0 1 .557-.716 4.558 4.558 0 0 1 1.633-.994.56.56 0 0 1 .3-.03.391.391 0 0 1 .109.047 1.439 1.439 0 0 1 .224.323c.098.204.592.455.49.659z" transform="translate(13544.56 -2209.771)" style="opacity:.1"/>
        <path data-name="Caminho 347" d="M839.305 520.429a1.81 1.81 0 0 1-1.076-.616l-.942-.875a.879.879 0 0 1-.164-.184 1.287 1.287 0 0 1-.114-.306 3.508 3.508 0 0 0-.915-1.312.6.6 0 0 0-.271-.194.544.544 0 0 0-.3.03 4.546 4.546 0 0 0-1.633.994 1.858 1.858 0 0 0-.557.716 1.65 1.65 0 0 0-.079.594 4.561 4.561 0 0 0 .432 1.9c.042.092.09.184.139.273a8.605 8.605 0 0 0 1.168 1.519l.591.661c.582.651 1.163 1.3 1.794 1.9a2.369 2.369 0 0 0 .805.562.9.9 0 0 0 .925-.149 1.337 1.337 0 0 0 .263-.472 9.3 9.3 0 0 0 .768-3.1 11.715 11.715 0 0 0-.055-1.285c-.036-.452-.356-.628-.779-.656z" transform="translate(13543.628 -2210.257)" style="fill:#5d99c6"/>
        <path data-name="Caminho 348" d="M828 636.371a57.431 57.431 0 0 1-.532 7.473c-.05.4-.1.8-.132 1.2-.082 1.161.052 2.326-.057 3.479-.057.624-.186 1.243-.3 1.852a32.912 32.912 0 0 0-.422 8.239c.343 4.58-.708 9.163-.231 13.731a11.106 11.106 0 0 1-.147 2.657 11.232 11.232 0 0 1-.385 1.605q-.544 1.866-1.094 3.728a1.293 1.293 0 0 1-.248.517 1.178 1.178 0 0 1-.932.276 10.752 10.752 0 0 1-4.086-1.268 1.425 1.425 0 0 1-.41-.248c-.271-.281-.248-.723-.368-1.094a10.375 10.375 0 0 0-.626-1.1 3.589 3.589 0 0 1-.271-1.131q-.249-1.909-.338-3.832c-.094-1.8 1.1-3.464 1.491-5.219.746-3.45.114-7.148 1.439-10.421.417-1.034-.189-2.286-.248-3.4a10.79 10.79 0 0 0-.278-2.132 13.223 13.223 0 0 1-.81-2.783 10.224 10.224 0 0 1 .316-2.075 9.331 9.331 0 0 0-.042-3.064c-.132-.835-.333-1.67-.534-2.485l-.045.092a28.093 28.093 0 0 0-1.558 3.666c-.2.609-.373 1.23-.621 1.822-.2.5-.455.952-.7 1.419a40.747 40.747 0 0 0-2.3 5.107c-.308.86-.579 1.74-.847 2.6l-1.842 5.965c-.5 1.568-1.041 3.084-1.528 4.65-.689 2.237-1.377 4.454-2.177 6.641-.746 2.075-1.633 4.225-1.367 6.417a4.722 4.722 0 0 1-2.195.445 12.842 12.842 0 0 1-3.728-.9 2.9 2.9 0 0 1-1.287-.765 3.045 3.045 0 0 1-.249-2.518 6.091 6.091 0 0 1 .3-1.133c.189-.457.5-.862.691-1.315a11.027 11.027 0 0 0 .569-2.791 3.444 3.444 0 0 1 1.3-2.448 35.355 35.355 0 0 1 1.193-4.906c.283-1.225.378-2.485.6-3.728a8.188 8.188 0 0 1 1.335-3.492 5.535 5.535 0 0 1 .676-2.982 3.26 3.26 0 0 0 .3-.634 3.633 3.633 0 0 0 .08-.656 3.879 3.879 0 0 1 1.049-2.3 4.675 4.675 0 0 1 .408-2.734 9.5 9.5 0 0 0 .522-3.5 3.066 3.066 0 0 1 .047-.994c.07-.249.206-.46.286-.7a3.967 3.967 0 0 0 .112-.892 10.319 10.319 0 0 1 1.243-3.812c.358-.7.055-1.653.129-2.433a9.4 9.4 0 0 1 .914-3.77c.119-.214.249-.418.355-.639a2.768 2.768 0 0 0 .206-.994 3.662 3.662 0 0 0-.1-1.571 8.054 8.054 0 0 1 4.874-1.493 30.388 30.388 0 0 0 5.172-.286c.5-.112.994-.266 1.518-.34a9.824 9.824 0 0 1 3.574.365 4.257 4.257 0 0 0 .5 2.155 23.132 23.132 0 0 1 1.836 8.877z" transform="translate(13569.992 -2291.405)" style="fill:#33313f"/>
        <path data-name="Caminho 349" d="m884.274 673.29-2.855 6.422c-.132-.835-.333-1.67-.534-2.485l-.045.092v-.134l1.556-3.422z" transform="translate(13507.867 -2327.755)" style="opacity:.1"/>
        <path data-name="Caminho 350" d="M917.187 614.417a1.073 1.073 0 0 1-.567.211 2.755 2.755 0 0 1-.93-.127l-2.237-.559a1.1 1.1 0 0 1-.2-.072c.037-.39.112-.842.323-.994.316-.211 1.26.072 1.618.122.616.084 1.243.184 1.844.3a4.926 4.926 0 0 1 .152 1.118z" transform="translate(13483.513 -2282.297)" style="opacity:.1"/>
        <path data-name="Caminho 351" d="M918.377 557.411c.047.206.114.41.154.619a4.724 4.724 0 0 1-.052 1.538l-.2 1.422-.2 1.429-.788 5.5-.194 1.362-.273 1.9a1.366 1.366 0 0 1-.119.457.952.952 0 0 1-.778.46 2.82 2.82 0 0 1-.929-.127l-2.237-.562a.7.7 0 0 1-.273-.112.539.539 0 0 1-.144-.524c.032-.189.114-.365.142-.554.055-.368-.1-.746-.045-1.111a2.764 2.764 0 0 1 .248-.669c.746-1.648.313-3.571.567-5.361a8.127 8.127 0 0 1 1.725-3.837 11.016 11.016 0 0 1 1.9-1.869 3.832 3.832 0 0 1 1.071-.746c.448-.092.348.474.425.785z" transform="translate(13484.213 -2240.078)" style="fill:#5d99c6"/>
        <path data-name="Caminho 352" d="M861.579 469.855c-.164.522.092 1.1-.025 1.628-.127.586-.679.994-.835 1.583-.249.9.512 1.715 1.069 2.46 2.063 2.769 1.792 6.6 1.086 9.978a51.506 51.506 0 0 1-2.349 7.953 6.093 6.093 0 0 1-1.265 2.219 6.542 6.542 0 0 1 3.5-.34c1.451.4 2.7 1.812 4.175 1.491.885-.2 1.506-.982 2.3-1.417 1.491-.8 3.288-.3 4.951-.04a1.943 1.943 0 0 0 1.081-.055 1.8 1.8 0 0 0 .656-.6 6.129 6.129 0 0 0 1.277-3.305 4.239 4.239 0 0 0-1.22-3.263 6.988 6.988 0 0 1-1.046-.994 3.087 3.087 0 0 1-.41-1.506c-.2-2.734.47-5.525-.216-8.169a20.155 20.155 0 0 1-.763-2.808c-.137-1.2.189-2.485-.288-3.584a3.515 3.515 0 0 0-2.1-1.809 11.479 11.479 0 0 0-2.793-.5c-1.353-.115-6.216-.699-6.785 1.078z" transform="translate(13524.085 -2173.93)" style="fill:#33313f"/>
        <g data-name="Grupo 188" style="opacity:.1">
            <path data-name="Caminho 353" d="M14386.958-1688.425a51.412 51.412 0 0 1-2.336 7.92c.172-.34.316-.7.452-1.054a51.251 51.251 0 0 0 2.349-7.953c.708-3.38.979-7.207-1.084-9.978a3.9 3.9 0 0 1-1.117-2.152 2.648 2.648 0 0 0-.423.78c-.249.9.512 1.715 1.069 2.46 2.067 2.767 1.796 6.6 1.09 9.977z"/>
            <path data-name="Caminho 354" d="M14385.668-1702.698a2.417 2.417 0 0 0 .437-.837 4.261 4.261 0 0 0-.03-1.108 1.194 1.194 0 0 0-.413.569 4.917 4.917 0 0 0 .006 1.376z"/>
            <path data-name="Caminho 355" d="M14400.485-1680.311a1.789 1.789 0 0 1-.656.6 1.9 1.9 0 0 1-1.081.055c-1.663-.249-3.479-.76-4.951.042-.8.432-1.417 1.218-2.3 1.417-1.469.328-2.721-1.081-4.173-1.491a5.825 5.825 0 0 0-3.149.249 4.345 4.345 0 0 1-.823 1.188 6.54 6.54 0 0 1 3.5-.34c1.451.4 2.7 1.812 4.175 1.491.885-.2 1.506-.982 2.3-1.417 1.491-.8 3.288-.3 4.951-.04a1.944 1.944 0 0 0 1.081-.055 1.8 1.8 0 0 0 .656-.6 6.678 6.678 0 0 0 1.029-1.968 7.217 7.217 0 0 1-.559.869z"/>
        </g>
    </g>
</svg>
