<svg xmlns="http://www.w3.org/2000/svg" width="759.578" height="454.087" viewBox="0 0 759.578 454.087"><defs><style>.a{fill:#f2f2f2;}.b{fill:#fff;}.c{fill:#ccc;}.d{fill:#5d99c6;}.e{fill:#ffb8b8;}.f{fill:#2f2e41;}.g{fill:#3f3d56;}</style></defs><g transform="translate(0 0)"><path class="a" d="M829.009,683.053c-9.725-8.217-15.631-21.2-14.083-33.835s11.144-24.254,23.589-26.938,26.633,4.745,30.413,16.9c2.08-23.439,4.478-47.86,16.939-67.821,11.284-18.074,30.827-31.006,52.008-33.32s43.482,6.425,56.691,23.143,16.444,41.022,7.192,60.215c-6.815,14.139-19.372,24.662-32.528,33.222A209.933,209.933,0,0,1,825.65,686.033Z" transform="translate(-247.458 -234.067)"/><path class="b" d="M981.909,545.94A346.4,346.4,0,0,0,880.127,683.569c-.971,2.379,2.892,3.414,3.852,1.062A342.546,342.546,0,0,1,984.734,548.764c1.994-1.624-.847-4.435-2.825-2.825Z" transform="translate(-255.745 -235.055)"/><path class="a" d="M409.52,672.6c13.357-11.286,21.47-29.115,19.342-46.472s-15.306-33.313-32.4-37-36.58,6.517-41.772,23.215c-2.857-32.193-6.15-65.736-23.266-93.151-15.5-24.824-42.341-42.587-71.433-45.765s-59.722,8.824-77.866,31.786-22.586,56.344-9.879,82.706c9.361,19.42,26.607,33.873,44.677,45.631A288.343,288.343,0,0,0,414.133,676.7" transform="translate(-165 -225.849)"/><path class="b" d="M216.867,484.277a471.77,471.77,0,0,1,65.746,65.286A478.518,478.518,0,0,1,334.462,626.3a476.58,476.58,0,0,1,22.2,47.012c1.333,3.268-3.972,4.69-5.291,1.459a468.282,468.282,0,0,0-42.789-80.958A471.226,471.226,0,0,0,251.2,522.919a470.11,470.11,0,0,0-38.211-34.761c-2.739-2.231,1.163-6.092,3.88-3.88Z" transform="translate(-170.972 -227.206)"/><path class="a" d="M743.174,643.059H424.5V316.091a126.3,126.3,0,0,1,126.16-126.16h66.354a126.3,126.3,0,0,1,126.16,126.16Z" transform="translate(-197.936 -189.931)"/><path class="c" d="M676.82,643.059H424.5V316.091a125.183,125.183,0,0,1,24.093-74.163c.58-.79,1.158-1.57,1.754-2.341A126.132,126.132,0,0,1,477.2,213.526c.576-.419,1.154-.831,1.741-1.243a125.86,125.86,0,0,1,27.478-14.37c.577-.219,1.164-.438,1.752-.648a125.743,125.743,0,0,1,27.16-6.4c.574-.078,1.164-.14,1.753-.2a127.723,127.723,0,0,1,27.158,0c.588.061,1.177.123,1.758.2a125.715,125.715,0,0,1,27.153,6.4c.588.21,1.175.429,1.754.648a125.551,125.551,0,0,1,27.158,14.158c.586.4,1.173.815,1.752,1.226a127.457,127.457,0,0,1,16.05,13.589,125.988,125.988,0,0,1,11.109,12.7c.594.769,1.172,1.548,1.751,2.337a125.184,125.184,0,0,1,24.094,74.164Z" transform="translate(-197.936 -189.931)"/><circle class="d" cx="13.969" cy="13.969" r="13.969" transform="translate(444.397 278.949)"/><path class="e" d="M592.3,501.781H581.6l-5.093-41.286h15.8Z" transform="translate(-73.171 -58.447)"/><path class="f" d="M571.693,504.28h20.643v13H558.7a13,13,0,0,1,13-13Z" transform="translate(-70.91 -64.004)"/><path class="e" d="M653.3,501.781H642.6l-5.093-41.286h15.8Z" transform="translate(-80.913 -58.447)"/><path class="f" d="M632.693,504.28h20.643v13H619.7a13,13,0,0,1,13-13Z" transform="translate(-78.653 -64.004)"/><path class="e" d="M697.863,512.01a9.379,9.379,0,0,1,3.938-13.832L738.187,397.89l17.9,9.772L714.545,503.5a9.43,9.43,0,0,1-16.683,8.51Z" transform="translate(-232.426 -216.325)"/><path class="e" d="M812.33,532.7a9.379,9.379,0,0,1-2.526-14.158L798.533,412.458l20.376.931,4.684,104.351A9.43,9.43,0,0,1,812.331,532.7Z" transform="translate(-245.409 -218.174)"/><circle class="e" cx="21.444" cy="21.444" r="21.444" transform="translate(512.973 120.102)"/><path class="d" d="M804.782,505.177H740.133l.078-.5c.116-.752,11.522-75.468,3.11-99.912a10.314,10.314,0,0,1,5.3-12.732h0c12.024-5.662,35.1-12.635,54.585,4.286a24.651,24.651,0,0,1,8.259,20.427Z" transform="translate(-237.997 -214.775)"/><path class="d" d="M750.123,441.29l-29.105-5.9,13.643-32.33a12.221,12.221,0,1,1,23.665,6.109Z" transform="translate(-235.571 -215.817)"/><path class="d" d="M796.761,452.583l-1.75-40.11c-1.327-7.54,2.99-14.668,9.628-15.833s13.124,4.069,14.457,11.664l6.577,37.479Z" transform="translate(-244.932 -216.146)"/><path class="f" d="M802.124,517.049c10.4,39.617,11.537,89.987,8.731,144.931l-13.969-1.746L771.567,555.465,757.6,661.98l-15.715-.873c-4.695-57.649-9.266-107.14-1.746-139.693Z" transform="translate(-237.49 -231.449)"/><path class="f" d="M787.492,364.072c-4,4.261-11.43,1.974-11.951-3.848a7.028,7.028,0,0,1,.009-1.358c.269-2.579,1.759-4.92,1.4-7.643a4.007,4.007,0,0,0-.734-1.876c-3.188-4.269-10.671,1.909-13.68-1.955-1.845-2.37.324-6.1-1.092-8.749-1.868-3.5-7.4-1.771-10.873-3.685-3.861-2.13-3.63-8.054-1.089-11.658,3.1-4.395,8.535-6.74,13.9-7.078s10.7,1.113,15.709,3.066c5.693,2.219,11.339,5.285,14.843,10.291,4.261,6.088,4.671,14.273,2.54,21.392C795.183,355.3,790.759,360.592,787.492,364.072Z" transform="translate(-238.947 -205.954)"/><path class="g" d="M911.124,709.272H266.535a1.04,1.04,0,1,1,0-2.079H911.124a1.04,1.04,0,1,1,0,2.079Z" transform="translate(-177.755 -255.582)"/><path class="b" d="M616.675,561.974h-113.5a5.645,5.645,0,0,1-5.675-5.6V303.032a5.645,5.645,0,0,1,5.675-5.6h113.5a5.645,5.645,0,0,1,5.675,5.6v253.34A5.645,5.645,0,0,1,616.675,561.974Z" transform="translate(-207.201 -203.575)"/><rect class="c" width="124.85" height="1.746" transform="translate(290.299 175.829)"/><rect class="c" width="124.85" height="1.746" transform="translate(290.735 275.456)"/><rect class="c" width="1.746" height="265.416" transform="translate(329.587 93.856)"/><rect class="c" width="1.746" height="265.416" transform="translate(373.241 93.856)"/></g></svg>