<svg xmlns="http://www.w3.org/2000/svg" xmlns:xlink="http://www.w3.org/1999/xlink" width="1921" height="605.535" viewBox="0 0 1921 605.535"><defs><style>.a{stroke:rgba(0,0,0,0);stroke-miterlimit:10;fill:url(#a);}</style><linearGradient id="a" x1="0.5" x2="0.5" y2="1" gradientUnits="objectBoundingBox"><stop offset="0" stop-color="#3f51b5"/><stop offset="0.203" stop-color="#757de8"/><stop offset="0.719" stop-color="#90caf9"/><stop offset="1" stop-color="#90caf9" stop-opacity="0.6"/></linearGradient></defs><path class="a" d="M1781.652,604.535h-.029c-7.468,0-14.962-.2-22.273-.579-7.164-.376-14.363-.944-21.4-1.688-6.881-.728-13.809-1.646-20.589-2.728-6.616-1.056-13.294-2.3-19.847-3.7-6.38-1.362-12.83-2.91-19.171-4.6-6.159-1.643-12.4-3.472-18.561-5.435-5.962-1.9-12.025-3.987-18.018-6.2-5.787-2.136-11.689-4.456-17.542-6.9-11.115-4.632-22.21-9.735-33.919-15.6-10.461-5.241-21.193-10.983-32.809-17.556-21.623-12.234-42.41-25.124-64.416-38.772l-.005,0c-44.427-27.55-90.366-56.038-143.845-78.875-6.794-2.9-13.666-5.69-20.424-8.289-7.028-2.7-14.164-5.289-21.211-7.687-7.293-2.482-14.719-4.841-22.07-7.01-7.584-2.238-15.323-4.343-23-6.257-7.9-1.97-15.982-3.8-24.007-5.428-8.247-1.677-16.687-3.2-25.086-4.523-8.611-1.358-17.438-2.55-26.237-3.543-9-1.016-18.244-1.853-27.461-2.487-14.56-1-29.239-1.51-43.63-1.51-12.178,0-24.523.364-36.693,1.081-11.6.684-23.429,1.712-35.148,3.056-11.086,1.271-22.467,2.868-33.826,4.748-10.622,1.758-21.633,3.831-32.727,6.16-10.33,2.169-20.749,4.554-31.851,7.291-9.879,2.435-20.083,5.1-31.2,8.139-20.627,5.646-41.314,11.772-61.319,17.7l-.008,0-.492.146c-19.971,5.915-40.622,12.03-61.52,17.742-11.153,3.048-21.408,5.718-31.35,8.163-11.158,2.744-21.639,5.136-32.041,7.314-11.167,2.337-22.255,4.417-32.956,6.181-11.445,1.887-22.916,3.49-34.095,4.766-11.821,1.349-23.751,2.381-35.457,3.068-12.282.72-24.745,1.086-37.044,1.086-10.463,0-21.113-.263-31.656-.784-10.878-.537-21.977-1.363-32.989-2.456-11.332-1.125-22.922-2.566-34.448-4.284-11.83-1.763-23.954-3.872-36.034-6.267-15.365-3.047-29.448-6.3-43.053-9.949-7.513-2.015-14.957-4.177-22.124-6.425-7.6-2.383-15.144-4.945-22.434-7.616-7.665-2.808-15.295-5.828-22.677-8.974-7.72-3.291-15.409-6.824-22.853-10.5-7.754-3.83-15.48-7.934-22.962-12.2-7.768-4.425-15.508-9.155-23-14.058-6.216-4.066-12.4-8.341-18.391-12.708-5.835-4.256-11.639-8.715-17.251-13.253-10.784-8.721-21.291-18.084-31.229-27.829-9.383-9.2-18.5-18.98-27.107-29.069-8.078-9.472-15.909-19.458-23.274-29.682V0h1920V513.3c-7.994,5.07-16.14,10-24.212,14.651-8.663,4.992-17.492,9.81-26.244,14.32-9.319,4.8-18.817,9.394-28.23,13.648-9.963,4.5-20.113,8.753-30.169,12.634-10.59,4.087-21.377,7.881-32.062,11.277-11.206,3.561-22.614,6.784-33.908,9.578-11.806,2.922-23.82,5.457-35.708,7.538-12.392,2.168-25,3.9-37.461,5.154-8.106.814-16.223,1.432-24.124,1.835C1797.017,604.334,1789.238,604.535,1781.652,604.535Z" transform="translate(-156.391 0.5)"/></svg>