<svg xmlns="http://www.w3.org/2000/svg" xmlns:xlink="http://www.w3.org/1999/xlink" width="57.257" height="46.041" viewBox="0 0 57.257 46.041"><defs><style>.a{fill:url(#a);}.b{filter:url(#b);}</style><linearGradient id="a" x1="0.5" x2="0.5" y2="1" gradientUnits="objectBoundingBox"><stop offset="0" stop-color="#3f51b5"/><stop offset="0.293" stop-color="#757de8"/><stop offset="0.835" stop-color="#90caf9"/><stop offset="1" stop-color="#90caf9" stop-opacity="0.6"/></linearGradient><filter id="b" x="0" y="0" width="57.257" height="46.041" filterUnits="userSpaceOnUse"><feOffset dy="3" input="SourceAlpha"/><feGaussianBlur stdDeviation="3" result="c"/><feFlood flood-opacity="0.161"/><feComposite operator="in" in2="c"/><feComposite in="SourceGraphic"/></filter></defs><g class="b" transform="matrix(1, 0, 0, 1, 0, 0)"><path class="a" d="M13.721,28.041a13.46,13.46,0,0,1-7.671-2.395,13.864,13.864,0,0,1-2.031-1.712,14.094,14.094,0,0,1-3.74-7.088,14.46,14.46,0,0,1,0-5.651,14.078,14.078,0,0,1,3.74-7.089A13.864,13.864,0,0,1,6.049,2.395,13.63,13.63,0,0,1,8.38,1.1,13.474,13.474,0,0,1,18.844,1.01,13.61,13.61,0,0,1,21.1,2.2,13.87,13.87,0,0,1,23.09,3.777,11.728,11.728,0,0,0,20.1,5.562a12.019,12.019,0,0,0-2.346,2.575,12.214,12.214,0,0,0,3.906,17.322,13.461,13.461,0,0,1-7.937,2.583Zm13.745-1.022a11.541,11.541,0,0,1-5.807-1.561A14.182,14.182,0,0,0,23.09,3.777a11.579,11.579,0,0,1,8.965.091,11.689,11.689,0,0,1,2,1.111A11.919,11.919,0,0,1,35.8,6.45a12.082,12.082,0,0,1,2.527,3.83,12.189,12.189,0,0,1,.687,2.262,12.426,12.426,0,0,1,0,4.856A12.1,12.1,0,0,1,35.8,23.49a11.952,11.952,0,0,1-1.745,1.471,11.741,11.741,0,0,1-2,1.111,11.544,11.544,0,0,1-4.59.947Z" transform="translate(9 6)"/></g></svg>