<svg xmlns="http://www.w3.org/2000/svg" width="806.728" height="535.868" viewBox="0 0 806.728 535.868"><defs><style>.a{opacity:0.8;}.b{fill:#f0f0f0;opacity:0.3;}.c{fill:#fff;}.d{fill:#3f3d56;}.e{fill:#9e616a;}.f{fill:#2f2e41;}.g{opacity:0.2;}.h{fill:#5d99c6;}</style></defs><g class="a" transform="translate(0 0)"><path class="b" d="M459.7,482.045c27.633-48.61,80.345-85.935,136.143-82.339A257.625,257.625,0,0,0,528.086,563.09c-.916,23.433.5,49.591-15.054,67.137-9.681,10.918-24.478,16.205-39.027,17.315s-29.1-1.52-43.451-4.138l-3.482,1.069C425.746,588.574,432.065,530.655,459.7,482.045Z" transform="translate(-170.464 -173.648)"/><path class="c" d="M595.92,400.688c-41.262,19.863-76.447,53.039-98.045,93.5-4.67,8.747-8.645,18.027-10.379,27.839s-.523,19.16,2.83,28.483c3.065,8.523,7.187,16.887,8.127,26.007.991,9.613-2.546,18.6-8.913,25.734-7.79,8.728-18.251,14.137-28.666,19.07-11.563,5.478-23.66,10.984-31.85,21.208-.992,1.239-2.856-.373-1.866-1.61,14.249-17.787,38.64-21.13,55.553-35.459,7.892-6.686,13.817-15.791,13.443-26.459-.327-9.329-4.571-17.957-7.749-26.56-3.337-9.033-5-18.116-3.8-27.747,1.224-9.852,4.845-19.307,9.271-28.135a213.63,213.63,0,0,1,39.285-53.989,224.107,224.107,0,0,1,61.964-44.211c1.426-.686,2.214,1.65.8,2.332Z" transform="translate(-170.46 -173.46)"/><path class="c" d="M515.664,487.882a33.037,33.037,0,0,1-9.969-41.6c.722-1.412,2.95-.357,2.227,1.057a30.592,30.592,0,0,0,9.353,38.679C518.559,486.947,516.941,488.807,515.664,487.882Z" transform="translate(-181.922 -180.678)"/><path class="c" d="M499.026,568.807a63.676,63.676,0,0,0,40.316-22.98c1-1.235,2.861.377,1.865,1.61a66.232,66.232,0,0,1-42,23.828c-1.573.225-1.745-2.234-.18-2.458Z" transform="translate(-181.284 -195.875)"/><path class="c" d="M574.544,432.632a18.7,18.7,0,0,0,16.714,5.959c1.569-.245,1.74,2.214.181,2.458a20.955,20.955,0,0,1-18.5-6.551,1.274,1.274,0,0,1-.128-1.738A1.239,1.239,0,0,1,574.544,432.632Z" transform="translate(-192.645 -178.655)"/><path class="b" d="M706.478,575.149c-.975.181-1.951.362-2.935.561a246.262,246.262,0,0,0-38.505,10.644c-.974.339-1.956.7-2.918,1.064a259.629,259.629,0,0,0-81.656,49.692,252.12,252.12,0,0,0-26.448,27.715c-11.186,13.667-22.227,29.375-36.844,38.286a43.266,43.266,0,0,1-4.706,2.551l-84.206-34.928c-.152-.175-.312-.332-.464-.508l-3.426-1.241c.382-.539.79-1.091,1.172-1.63.22-.314.459-.62.68-.934.153-.207.307-.413.433-.609.051-.069.1-.138.145-.188.126-.2.264-.363.382-.539q3.408-4.633,6.892-9.233c.008-.019.008-.019.035-.031,17.759-23.325,37.622-45.372,60.2-63.7.679-.551,1.366-1.122,2.084-1.658a240.631,240.631,0,0,1,32.52-22,212.781,212.781,0,0,1,19.291-9.539,176.874,176.874,0,0,1,53.585-13.666c36.816-3.419,74.315,4.975,102.552,28.1C705.06,573.953,705.765,574.538,706.478,575.149Z" transform="translate(-170.078 -195.744)"/><path class="c" d="M706.057,580.62c-44.905-8.983-92.971-3.678-134.576,15.623-8.995,4.173-17.756,9.188-25.048,15.978s-11.953,14.983-14.89,24.446c-2.684,8.651-4.428,17.81-9.169,25.658-5,8.272-13.232,13.319-22.611,15.181-11.475,2.279-23.084.3-34.369-2.032-12.53-2.588-25.5-5.475-38.2-2.243-1.538.392-2.056-2.018-.52-2.409,22.086-5.623,43.574,6.392,65.7,5.135,10.327-.586,20.54-4.289,26.664-13.032,5.356-7.645,7.162-17.089,9.8-25.872,2.774-9.222,6.914-17.476,13.668-24.445,6.909-7.129,15.493-12.5,24.341-16.883a213.641,213.641,0,0,1,63.873-19.455,224.111,224.111,0,0,1,76.092,2.007c1.551.31.774,2.651-.767,2.343Z" transform="translate(-170.288 -200.225)"/><path class="c" d="M612.977,584.936a33.037,33.037,0,0,1,17.087-39.219c1.426-.693,2.57,1.491,1.142,2.185a30.592,30.592,0,0,0-15.82,36.514c.466,1.516-1.946,2.027-2.409.52Z" transform="translate(-198.592 -195.906)"/><path class="c" d="M551.132,642.524a63.676,63.676,0,0,0,46.025,5.925c1.539-.386,2.058,2.023.52,2.409A66.233,66.233,0,0,1,549.8,644.6C548.406,643.828,549.749,641.761,551.132,642.524Z" transform="translate(-189.094 -210.647)"/><path class="c" d="M695.959,575.9a18.7,18.7,0,0,0,9.758,14.821c1.4.749.056,2.815-1.336,2.071A20.956,20.956,0,0,1,693.55,576.42a1.274,1.274,0,0,1,.945-1.464,1.239,1.239,0,0,1,1.464.945Z" transform="translate(-211.078 -200.376)"/><path class="d" d="M500.376,622.305c-11.793-57.02-26.534-76.031-26.534-76.031l-5.631-4.367-6.772-5.26.033-.676-1.606-.546-.377-.293-.618-.475-.1.107-.21.217-30.645-10.417-38.879-13.206-18-23.4a31.138,31.138,0,0,0-24.91-12.151l-57.5.425a31.139,31.139,0,0,0-20.946,8.308l-37.792,35.055L171,547.719l-.1-.1-.618.442-9.1,4.351.376,1.954-5.631,4.064s-14.741,17.689-26.534,70.746c-3,13.5-4.477,42.46-5.01,78.146A13.621,13.621,0,0,0,138,721.144H491.785A13.624,13.624,0,0,0,505.4,707.335C504.879,668.5,503.4,636.945,500.376,622.305Z" transform="translate(-124.382 -185.277)"/><path class="c" d="M608.935,202.747a36.8,36.8,0,0,0,0,73.6H952.787a36.8,36.8,0,1,0,0-73.6Z" transform="translate(-182.86 -143.683)"/><circle class="e" cx="75.327" cy="75.327" r="75.327" transform="translate(126.694 118.275)"/><path class="f" d="M339.8,445.59q-.483-1.063-.963-2.133c.123,0,.245.022.369.025Z" transform="translate(-157.049 -180.349)"/><path class="f" d="M266.067,270.224c3.81-3.039,8.263-5.836,13.134-5.678s9.81,4.556,8.8,9.324a77.408,77.408,0,0,1,93.155-34.931c12.106,4.271,23.979,12.816,26.759,25.349.714,3.217.867,6.745,2.876,9.357,2.533,3.294,7.379,4.039,11.369,2.88l.12-.035a3.559,3.559,0,0,1,4.3,5.024l-3.426,6.389a27.451,27.451,0,0,0,13.078-.278,3.556,3.556,0,0,1,3.776,5.534c-11.3,15.507-30.165,25.521-49.422,25.4-13.686-.083-27.514-4.8-40.834-1.653A35.47,35.47,0,0,0,325.9,366.7c-4.092-4.476-12-3.416-16.188.972s-5.269,10.938-4.848,16.988c.645,9.253,4.27,17.972,8.092,26.458-32.043-1.009-62.351-23.487-72.552-53.888C230.157,326.7,240.893,290.305,266.067,270.224Z" transform="translate(-141.468 -148.523)"/><path class="g" d="M87.464,495.253,108.591,610.2l12.677,1.1Z" transform="translate(-13.323 -75.44)"/><path class="g" d="M355.932,485.026,334.8,608.563l-12.677,1.187Z" transform="translate(-49.068 -73.882)"/><path class="h" d="M285,216.083c-4.051,1.692-8.278-.162-10.051-4.408-1.8-4.31-.119-8.686,4-10.4s8.268.14,10.1,4.519C290.844,210.1,289.181,214.337,285,216.083Zm-7.76-23.3-3.221,1.345a3.475,3.475,0,0,1-4.413-1.619l-.159-.312c-3.466-6.25-3.862-13.847-1.173-22.566,2.491-7.822,3.526-13.323,1.445-18.306-2.406-5.762-7.544-7.567-14.1-4.952-2.541,1.061-3.35,1.044-5.349,3.028a4.591,4.591,0,0,1-3.324,1.351,4.438,4.438,0,0,1-3.176-1.393,4.533,4.533,0,0,1-.031-6.186A35.207,35.207,0,0,1,255.647,135c14.077-5.878,21.163,2.8,24.406,10.566,3.172,7.6,1.388,14.644-1.479,23.772-2.4,7.585-2.263,13.2.466,18.793a3.459,3.459,0,0,1-1.8,4.654Z" transform="translate(-142.38 -133.069)"/></g></svg>