<svg xmlns="http://www.w3.org/2000/svg" width="302.407" height="214" viewBox="0 0 302.407 214">
  <defs>
    <style>
      .cls-1 {
        fill: #f2f2f2;
      }

      .cls-2 {
        fill: #fff;
      }

      .cls-3 {
        fill: #2f2e41;
      }

      .cls-4 {
        fill: #a0616a;
      }

      .cls-5 {
        fill: #5d99c6;
      }

      .cls-6 {
        fill: #3f3d56;
      }

      .cls-7 {
        fill: #ccc;
      }

      .cls-8 {
        fill: #e6e6e6;
      }

      .cls-9 {
        fill: #3f51b5;
      }
    </style>
  </defs>
  <g id="Grupo_179" data-name="Grupo 179" transform="translate(0)">
    <path id="Caminho_264" data-name="Caminho 264" class="cls-1" d="M860.559,289.983c-4.175,14.484-16.366,24.623-29.082,33.236q-2.663,1.8-5.328,3.526c-.012.005-.024.016-.037.022-.086.055-.171.11-.251.165l-1.1.707.2.09s.2.1-.018.017c-.064-.027-.131-.051-.195-.078-7.388-2.979-14.906-6.179-20.568-11.76-5.873-5.8-9.3-14.887-6.125-22.5a14.533,14.533,0,0,1,1.574-2.825c.258-.369.536-.722.825-1.069a15.583,15.583,0,0,1,26.764,4.735c.934-8.7-6.238-15.985-13.141-21.361s-14.752-11.225-16.088-19.876a16.86,16.86,0,0,1,3.977-13.221c.094-.114.189-.227.286-.338a22.741,22.741,0,0,1,14.617-7.842c10.589-1.1,20.874,4.5,28.567,11.867C857.821,255.32,865.306,273.515,860.559,289.983Z" transform="translate(-559.593 -220.094)"/>
    <path id="Caminho_265" data-name="Caminho 265" class="cls-2" d="M844.236,281.232a38.66,38.66,0,0,1,4.631,10.215,33.568,33.568,0,0,1,1.16,9.914,43.008,43.008,0,0,1-5.633,19.573,61.9,61.9,0,0,1-9.338,12.478q-2.663,1.8-5.328,3.525c-.012.005-.024.017-.037.022-.085.055-.171.11-.251.165l-1.1.707s.4.194.182.106c-.064-.027-.131-.051-.195-.078a33.915,33.915,0,0,0-25.118-37.087c.258-.369.536-.722.825-1.069a35.779,35.779,0,0,1,5.906,2.235,35.06,35.06,0,0,1,15.852,15.283,35.843,35.843,0,0,1,3.9,19.669c.3-.275.607-.556.9-.834a62.851,62.851,0,0,0,13.974-18.174,40.013,40.013,0,0,0,4.19-18.931c-.275-7.151-3.125-13.775-7.25-19.541a83.75,83.75,0,0,0-15.876-16.362,95.166,95.166,0,0,0-19.745-12.19.684.684,0,0,1-.344-.878.582.582,0,0,1,.286-.338.507.507,0,0,1,.44.019c.871.4,1.736.807,2.594,1.231a96.246,96.246,0,0,1,19.885,13.117A77.5,77.5,0,0,1,844.236,281.232Z" transform="translate(-563.172 -230.288)"/>
    <circle id="Elipse_64" data-name="Elipse 64" class="cls-3" cx="15.485" cy="15.485" r="15.485" transform="translate(217.396 121.775)"/>
    <ellipse id="Elipse_65" data-name="Elipse 65" class="cls-3" cx="6.408" cy="4.806" rx="6.408" ry="4.806" transform="translate(209.486 126.653) rotate(-45)"/>
    <ellipse id="Elipse_66" data-name="Elipse 66" class="cls-3" cx="4.806" cy="6.408" rx="4.806" ry="6.408" transform="translate(235.344 123.391) rotate(-66.869)"/>
    <path id="Caminho_266" data-name="Caminho 266" class="cls-4" d="M828.741,629.227a57.723,57.723,0,0,1-8.406,4.846l-.434-.766-4.15-7.285-.363-.639-2.123-3.726,0,0-6.7-11.777-3.445-6.046,10.231-7.176,3.98,8.414,2.158,4.571,8.883,18.786Z" transform="translate(-563.116 -425.516)"/>
    <path id="Caminho_267" data-name="Caminho 267" class="cls-5" d="M814.236,586.677l-1.283-2.009-5.674-8.9a7.161,7.161,0,1,0-13.09,5.81l3.507,12.495a2.572,2.572,0,0,0,3.5,1.668l.035-.013,10.731-4.794,1.156-.517a2.583,2.583,0,0,0,1.121-3.739Z" transform="translate(-557.711 -411.379)"/>
    <path id="Caminho_268" data-name="Caminho 268" class="cls-4" d="M739.971,602.876l-2.986,6.742-.648,1.467-11.054,24.972-.355.8a57.407,57.407,0,0,1-8.616-4.483l.3-.841,9.023-25.458,2.215-6.252,4.851,1.221Z" transform="translate(-514.246 -427.298)"/>
    <circle id="Elipse_67" data-name="Elipse 67" class="cls-4" cx="13.142" cy="13.142" r="13.142" transform="translate(215.534 146.184) rotate(-61.337)"/>
    <path id="Caminho_269" data-name="Caminho 269" class="cls-5" d="M787.806,587.344a29.239,29.239,0,0,0-1.029-5.113,28.5,28.5,0,0,0-8.235-13.064,7.789,7.789,0,0,0-5.21-1.992H754.818a7.785,7.785,0,0,0-6.974,11.286l2.115,4.229,4.286,8.572,1.029,2.053,4.584,9.172.363.727,23.269,6.4.1-.223c.088-.2.175-.39.258-.582.127-.293.254-.578.372-.867a45.454,45.454,0,0,0,3.721-14.876A33.123,33.123,0,0,0,787.806,587.344Z" transform="translate(-531.532 -408.942)"/>
    <path id="Caminho_270" data-name="Caminho 270" class="cls-5" d="M750.563,571.786a7.15,7.15,0,0,0-9.5,3.415l-1.651,2.491-5.516,8.327a2.58,2.58,0,0,0,1.055,3.761l.324.153,10.7,5.008.762.355a2.478,2.478,0,0,0,.915.232,2.523,2.523,0,0,0,1.235-.215,2.574,2.574,0,0,0,1.414-1.611l3.7-12.394A7.168,7.168,0,0,0,750.563,571.786Z" transform="translate(-523.898 -411.154)"/>
    <path id="Caminho_271" data-name="Caminho 271" class="cls-3" d="M785.677,650.6a2.389,2.389,0,0,0-.372-.757,10.019,10.019,0,0,0-2.123-2.1l0,0c-2.815-2.132-8.419-4.623-19.228-4.689h-.017a2.582,2.582,0,0,0-2.351,1.51l-.267.587-1.721,3.783a1.975,1.975,0,0,1-.67.81,25.788,25.788,0,0,0-9.058,12.692c-.092.271-.18.547-.263.832a57.832,57.832,0,0,0,33.435-.3l.241-.994,2.39-9.859.039-.162a2.586,2.586,0,0,0-.031-1.344Z" transform="translate(-532.984 -451.597)"/>
    <path id="Caminho_272" data-name="Caminho 272" class="cls-3" d="M756.322,499.707a17.874,17.874,0,0,0,10.215,3.157,10.953,10.953,0,0,1-4.341,1.786,36.043,36.043,0,0,0,14.722.083A9.526,9.526,0,0,0,780,503.675a3.9,3.9,0,0,0,1.9-2.544c.323-1.845-1.115-3.522-2.609-4.652a19.246,19.246,0,0,0-16.173-3.232,8.857,8.857,0,0,0-4.79,2.707,4.363,4.363,0,0,0-.4,5.182Z" transform="translate(-536.757 -367.012)"/>
    <rect id="Retângulo_106" data-name="Retângulo 106" class="cls-6" width="237.425" height="0.952" transform="translate(0.475 13.344)"/>
    <circle id="Elipse_68" data-name="Elipse 68" class="cls-6" cx="2.855" cy="2.855" r="2.855" transform="translate(5.709 4.285)"/>
    <circle id="Elipse_69" data-name="Elipse 69" class="cls-6" cx="2.855" cy="2.855" r="2.855" transform="translate(13.917 4.285)"/>
    <circle id="Elipse_70" data-name="Elipse 70" class="cls-6" cx="2.855" cy="2.855" r="2.855" transform="translate(22.124 4.285)"/>
    <path id="Caminho_273" data-name="Caminho 273" class="cls-7" d="M503.316,354.264H368.562a3.054,3.054,0,0,1,0-6.108H503.316a3.054,3.054,0,1,1,0,6.108Z" transform="translate(-316.914 -285.729)"/>
    <path id="Caminho_274" data-name="Caminho 274" class="cls-8" d="M503.316,429.252H368.562a3.054,3.054,0,0,1,0-6.108H503.316a3.054,3.054,0,1,1,0,6.108Z" transform="translate(-316.914 -327.906)"/>
    <path id="Caminho_275" data-name="Caminho 275" class="cls-8" d="M503.316,458.026H368.562a3.054,3.054,0,0,1,0-6.108H503.316a3.054,3.054,0,1,1,0,6.108Z" transform="translate(-316.914 -344.089)"/>
    <path id="Caminho_276" data-name="Caminho 276" class="cls-7" d="M509.554,324.618H418.7a3.054,3.054,0,0,1,0-6.108h90.854a3.054,3.054,0,1,1,0,6.108Z" transform="translate(-345.112 -269.055)"/>
    <path id="Caminho_277" data-name="Caminho 277" class="cls-8" d="M416.29,400.477H368.954a3.054,3.054,0,0,1,0-6.108H416.29a3.054,3.054,0,1,1,0,6.108Z" transform="translate(-317.107 -311.721)"/>
    <path id="Caminho_278" data-name="Caminho 278" class="cls-8" d="M615.967,400.477H568.631a3.054,3.054,0,1,1,0-6.108h47.336a3.054,3.054,0,0,1,0,6.108Z" transform="translate(-429.456 -311.721)"/>
    <path id="Caminho_279" data-name="Caminho 279" class="cls-6" d="M489.377,205.485H257.659a3.332,3.332,0,0,0-3.327,3.332V365.833a3.332,3.332,0,0,0,3.327,3.327H430.935c-.044-.315-.079-.635-.114-.95H257.659a2.379,2.379,0,0,1-2.377-2.377V208.817a2.383,2.383,0,0,1,2.377-2.382H489.377a2.384,2.384,0,0,1,2.382,2.382v96.232c.315.022.635.048.95.079V208.817A3.333,3.333,0,0,0,489.377,205.485Z" transform="translate(-254.332 -205.485)"/>
    <path id="Caminho_280" data-name="Caminho 280" class="cls-6" d="M655.984,495.672c-.044-.315-.079-.635-.114-.95-.009-.048-.013-.092-.018-.14q-.19-1.727-.276-3.489-.361,1.517-.652,3.047c.013.149.026.293.044.442,0,.048.009.092.018.14.035.315.07.635.114.95.122.976.271,1.939.446,2.9,0-.039.009-.074.013-.114.123-.924.263-1.843.429-2.762a.04.04,0,0,1,0-.022Zm61.773-64.912c-.315-.031-.635-.057-.95-.079-.048,0-.092,0-.14-.009-1.4-.105-2.819-.158-4.247-.158a57.807,57.807,0,0,0-57.5,63.625c.013.149.026.293.044.442,0,.048.009.092.017.14.035.315.07.635.114.95.123.976.272,1.939.447,2.9a58.04,58.04,0,0,0,34.7,43.1c.911.377,1.83.736,2.762,1.064.613.223,1.226.429,1.847.626.446.144.9.28,1.348.411.639.188,1.287.368,1.94.534a57.507,57.507,0,0,0,47.116-8.485h0A57.772,57.772,0,0,0,717.757,430.76Zm27.13,104.262a56.649,56.649,0,0,1-8.463,4.881,56.037,56.037,0,0,1-6.541,2.574,57.015,57.015,0,0,1-31.119,1.081q-1.156-.282-2.294-.617-1.123-.328-2.224-.7c-.6-.206-1.2-.416-1.8-.639-.622-.236-1.234-.482-1.847-.736a57.06,57.06,0,0,1-34.617-45.176.042.042,0,0,1,0-.022c-.044-.315-.079-.635-.114-.95-.009-.048-.013-.092-.017-.14q-.191-1.727-.276-3.489-.072-1.386-.07-2.789a56.976,56.976,0,0,1,56.914-56.914c1.427,0,2.846.052,4.247.158l.14.013c.315.022.635.048.95.079a56.9,56.9,0,0,1,27.136,103.377Zm-52.435,6.584c-.622-.236-1.234-.482-1.847-.736a57.06,57.06,0,0,1-34.617-45.176c-.166.919-.306,1.839-.429,2.762,0,.039-.009.074-.013.114a58.04,58.04,0,0,0,34.7,43.1c.911.377,1.83.736,2.763,1.064-.193-.372-.381-.749-.561-1.129Zm24.215-110.934c-1.4-.105-2.819-.158-4.247-.158a57.807,57.807,0,0,0-57.5,63.625c.013.149.026.293.044.442,0,.048.009.092.017.14h.884c-.009-.048-.013-.092-.017-.14q-.191-1.727-.276-3.489-.072-1.386-.07-2.789a56.976,56.976,0,0,1,56.914-56.914c1.427,0,2.846.052,4.247.158l.14.013v-.88c-.048,0-.092,0-.14-.009Z" transform="translate(-479.64 -332.112)"/>
    <path id="Caminho_281" data-name="Caminho 281" class="cls-9" d="M876.833,464.3c17.75.3,17.747,26.706,0,27.007C859.083,491.005,859.085,464.6,876.833,464.3Z" transform="translate(-597.078 -351.062)"/>
    <path id="Caminho_282" data-name="Caminho 282" class="cls-2" d="M884.485,493.056a.95.95,0,0,1-.949-.949v-5.032a.423.423,0,0,0-.423-.423h-5.032a.949.949,0,1,1,0-1.9h5.032a.423.423,0,0,0,.423-.423V479.3a.949.949,0,1,1,1.9,0v5.032a.423.423,0,0,0,.423.423h5.032a.949.949,0,1,1,0,1.9h-5.032a.423.423,0,0,0-.423.423v5.032A.95.95,0,0,1,884.485,493.056Z" transform="translate(-604.73 -358.959)"/>
  </g>
</svg>
